<?xml version="1.0" standalone="no"?>
<!DOCTYPE svg PUBLIC "-//W3C//DTD SVG 1.1//EN" "http://www.w3.org/Graphics/SVG/1.1/DTD/svg11.dtd" >
<svg xmlns="http://www.w3.org/2000/svg" xmlns:xlink="http://www.w3.org/1999/xlink" version="1.1">
<metadata>
Created by FontForge 20201107 at Wed May 30 13:47:17 2018
 By Unknown
Copyright \(c\) 2017 by Alexander Slobzheninov. All rights reserved.
</metadata>
<defs>
<font id="Objectivity-Regular" horiz-adv-x="605" >
  <font-face 
    font-family="Objectivity"
    font-weight="400"
    font-stretch="normal"
    units-per-em="1000"
    panose-1="0 0 0 0 0 0 0 0 0 0"
    ascent="800"
    descent="-200"
    x-height="505"
    cap-height="705"
    bbox="-53 -280 1431 1008"
    underline-thickness="50"
    underline-position="-125"
    stemh="69"
    stemv="76"
    unicode-range="U+000D-F6C3"
  />
<missing-glyph horiz-adv-x="500" 
 />
    <glyph glyph-name=".notdef" horiz-adv-x="500" 
 />
    <glyph glyph-name="NULL" horiz-adv-x="731" 
d="M636 705v-705h-541v705h541zM164 62h402v580h-402v-580z" />
    <glyph glyph-name="CR" unicode="&#xd;" horiz-adv-x="30" 
 />
    <glyph glyph-name="space" unicode=" " horiz-adv-x="308" 
 />
    <glyph glyph-name="exclam" unicode="!" horiz-adv-x="245" 
d="M122 -12c-30 0 -52 21 -52 52c0 29 22 51 52 51c31 0 52 -22 52 -51c0 -31 -21 -52 -52 -52zM165 705v-185l-18 -309h-49l-17 309v185h84z" />
    <glyph glyph-name="quotedbl" unicode="&#x22;" horiz-adv-x="325" 
d="M119 566l-7 -180h-54l-7 180v139h68v-139zM274 566l-6 -180h-54l-8 180v139h68v-139z" />
    <glyph glyph-name="numbersign" unicode="#" horiz-adv-x="950" 
d="M400 456l-41 -154h176l41 154h-176zM849 302v-58h-262l-64 -244h-68l65 244h-176l-65 -244h-68l66 244h-226v58h241l41 154h-232v58h247l59 222h68l-59 -222h175l59 222h68l-59 -222h240v-58h-256l-41 -154h247z" />
    <glyph glyph-name="dollar" unicode="$" horiz-adv-x="702" 
d="M388 -24v-97h-78v99c-145 20 -245 119 -245 250h83c0 -104 89 -179 216 -179c116 0 187 61 187 146c0 94 -100 108 -209 122c-131 18 -266 39 -266 196c0 117 93 204 234 215v92h78v-93c137 -17 232 -111 233 -236h-81c0 96 -83 165 -198 165c-110 0 -182 -57 -182 -136
c0 -94 94 -109 205 -124c129 -18 270 -39 270 -191c0 -127 -96 -220 -247 -229z" />
    <glyph glyph-name="percent" unicode="%" horiz-adv-x="1017" 
d="M563 192c0 119 83 201 201 201c119 0 202 -82 202 -201c0 -120 -82 -202 -202 -202c-118 0 -201 82 -201 202zM888 192c0 73 -51 123 -124 123c-72 0 -123 -50 -123 -123s51 -123 123 -123c73 0 124 50 124 123zM51 543c0 119 83 202 202 202s202 -83 202 -202
s-83 -201 -202 -201s-202 82 -202 201zM376 543c0 73 -50 123 -123 123s-124 -50 -124 -123s51 -123 124 -123s123 50 123 123zM711 735h93l-497 -735h-94z" />
    <glyph glyph-name="ampersand" unicode="&#x26;" horiz-adv-x="791" 
d="M485 127c-31 29 -183 170 -215 199c-73 -28 -121 -69 -121 -148c0 -75 68 -129 161 -129c67 0 126 29 175 78zM305 394c31 -28 198 -181 232 -211c33 44 59 97 79 157h79c-26 -78 -62 -147 -106 -204c21 -19 131 -119 150 -136h-112l-89 80c-68 -66 -150 -105 -238 -105
c-135 0 -233 84 -233 201c0 110 68 164 150 202c-39 43 -73 99 -73 164c0 103 84 179 195 180c107 0 190 -73 204 -175l-78 -15c-8 67 -57 116 -124 116c-66 0 -116 -44 -116 -110c0 -49 29 -98 80 -144z" />
    <glyph glyph-name="quotesingle" unicode="'" horiz-adv-x="169" 
d="M119 566l-7 -180h-54l-7 180v139h68v-139z" />
    <glyph glyph-name="parenleft" unicode="(" horiz-adv-x="333" 
d="M300 -180h-80c-95 95 -159 278 -159 459s64 363 159 458h80c-104 -102 -170 -277 -170 -458c0 -185 66 -360 170 -459z" />
    <glyph glyph-name="parenright" unicode=")" horiz-adv-x="333" 
d="M113 -180h-80c104 99 170 274 170 459c0 181 -66 356 -170 458h80c95 -95 159 -277 159 -458s-64 -364 -159 -459z" />
    <glyph glyph-name="asterisk" unicode="*" horiz-adv-x="512" 
d="M461 400l-29 -50l-149 88l2 -173h-58l2 173l-149 -88l-29 50l151 85l-151 85l29 50l149 -89l-2 174h58l-2 -174l149 89l29 -50l-152 -85z" />
    <glyph glyph-name="plus" unicode="+" horiz-adv-x="572" 
d="M325 90h-78v190h-196v70h196v180h78v-180h196v-70h-196v-190z" />
    <glyph glyph-name="comma" unicode="," horiz-adv-x="211" 
d="M102 -12c-29 0 -50 20 -50 51c0 30 22 50 51 50c35 0 57 -28 57 -70c0 -62 -30 -125 -72 -153l-37 27c30 21 51 60 51 95z" />
    <glyph glyph-name="hyphen" unicode="-" horiz-adv-x="512" 
d="M51 347h410v-70h-410v70z" />
    <glyph glyph-name="period" unicode="." horiz-adv-x="206" 
d="M103 -12c-31 0 -52 21 -52 52c0 29 21 51 52 51c30 0 52 -22 52 -51c0 -31 -22 -52 -52 -52z" />
    <glyph glyph-name="slash" unicode="/" horiz-adv-x="443" 
d="M334 705h76l-301 -935h-76z" />
    <glyph glyph-name="zero" unicode="0" horiz-adv-x="741" 
d="M370 -25c-178 0 -299 159 -299 377c0 219 121 378 299 378c179 0 300 -159 300 -378c0 -218 -121 -377 -300 -377zM370 656c-130 0 -216 -128 -216 -304c0 -175 86 -303 216 -303s217 128 217 303c0 176 -87 304 -217 304z" />
    <glyph glyph-name="one" unicode="1" horiz-adv-x="397" 
d="M209 0v594l-170 -131v99l187 143h67v-705h-84z" />
    <glyph glyph-name="two" unicode="2" horiz-adv-x="613" 
d="M147 486l-80 16c20 132 122 228 243 228c135 0 232 -96 232 -228c0 -103 -46 -158 -141 -247l-193 -181h323v-74h-458v51l279 263c60 56 107 110 107 188c0 89 -62 154 -148 154c-83 0 -151 -71 -164 -170z" />
    <glyph glyph-name="three" unicode="3" horiz-adv-x="628" 
d="M406 631h-315v74h436v-56l-191 -215c129 -7 221 -100 221 -228c0 -134 -105 -231 -250 -231c-135 0 -245 102 -256 242l74 13c12 -105 87 -181 179 -181c99 0 171 66 171 158c0 93 -72 160 -170 160c-23 0 -51 -6 -67 -14l-25 61z" />
    <glyph glyph-name="four" unicode="4" 
d="M142 252h231v371zM373 178h-337v54l301 473h119v-453h88v-74h-88v-178h-83v178z" />
    <glyph glyph-name="five" unicode="5" horiz-adv-x="638" 
d="M298 380h-179l36 325h361v-74h-293l-19 -177h102c161 0 266 -102 266 -241c0 -138 -105 -238 -249 -238c-138 0 -246 102 -257 242l74 13c8 -105 84 -181 179 -181c99 0 171 68 171 162c0 98 -73 169 -192 169z" />
    <glyph glyph-name="six" unicode="6" horiz-adv-x="611" 
d="M310 49c96 1 167 75 167 176c0 99 -71 170 -167 171c-102 0 -176 -72 -176 -171c0 -102 74 -176 176 -176zM103 375l256 330h100l-196 -250c24 8 47 11 72 11c130 0 225 -101 225 -241c0 -145 -106 -250 -253 -250c-149 0 -256 103 -256 243c0 52 22 118 52 157z" />
    <glyph glyph-name="seven" unicode="7" horiz-adv-x="516" 
d="M495 655l-277 -655h-90l267 631h-376v74h476v-50z" />
    <glyph glyph-name="eight" unicode="8" horiz-adv-x="674" 
d="M337 336c-101 0 -175 -60 -175 -143c0 -84 74 -144 175 -144c102 0 175 60 175 144c0 83 -74 143 -175 143zM337 656c-88 0 -152 -51 -152 -122c0 -72 64 -124 152 -124s152 52 152 124c0 71 -64 122 -152 122zM337 731c137 0 236 -78 236 -189c0 -79 -50 -147 -121 -165
c88 -20 151 -100 151 -192c0 -122 -111 -209 -266 -209c-154 0 -266 87 -266 209c0 92 62 172 151 192c-71 18 -121 86 -121 165c0 110 99 189 236 189z" />
    <glyph glyph-name="nine" unicode="9" horiz-adv-x="611" 
d="M301 655c-97 0 -167 -74 -167 -175c0 -99 70 -171 167 -171c102 -1 176 71 176 171c0 102 -74 176 -176 175zM508 330l-256 -330h-101l196 250c-18 -6 -42 -12 -71 -12c-131 0 -225 102 -225 242c0 145 106 249 253 249c148 0 256 -102 256 -242c0 -53 -22 -118 -52 -157
z" />
    <glyph glyph-name="colon" unicode=":" horiz-adv-x="206" 
d="M103 -12c-31 0 -52 21 -52 52c0 29 21 51 52 51c30 0 52 -22 52 -51c0 -31 -22 -52 -52 -52zM103 376c-31 0 -52 22 -52 52s21 51 52 51c30 0 52 -21 52 -51s-22 -52 -52 -52z" />
    <glyph glyph-name="semicolon" unicode=";" horiz-adv-x="211" 
d="M103 376c-31 0 -52 22 -52 52s21 51 52 51c30 0 52 -21 52 -51s-22 -52 -52 -52zM102 -12c-29 0 -50 20 -50 51c0 30 22 50 51 50c35 0 57 -28 57 -70c0 -62 -30 -125 -72 -153l-37 27c30 21 51 60 51 95z" />
    <glyph glyph-name="less" unicode="&#x3c;" horiz-adv-x="466" 
d="M91 252l314 -179v-73l-372 215v74l372 216v-74z" />
    <glyph glyph-name="equal" unicode="=" horiz-adv-x="572" 
d="M51 223h470v-70h-470v70zM51 474h470v-70h-470v70z" />
    <glyph glyph-name="greater" unicode="&#x3e;" horiz-adv-x="466" 
d="M433 289v-74l-372 -215v73l313 179l-313 179v74z" />
    <glyph glyph-name="question" unicode="?" horiz-adv-x="601" 
d="M295 -13c-31 0 -52 21 -52 52c0 29 21 51 52 51c30 0 52 -21 52 -51c0 -31 -22 -52 -52 -52zM334 179h-77c0 112 38 159 104 205c50 34 96 67 96 131c0 80 -65 141 -150 141c-93 0 -157 -71 -168 -168l-78 15c16 132 113 227 247 227c131 0 233 -91 233 -214
c0 -96 -56 -136 -126 -182c-58 -39 -81 -73 -81 -155z" />
    <glyph glyph-name="at" unicode="@" horiz-adv-x="1025" 
d="M659 260c0 90 -60 154 -146 154s-147 -65 -147 -154c0 -88 61 -151 147 -151c84 0 146 63 146 151zM513 629c-219 0 -377 -155 -377 -369c0 -212 146 -366 349 -366c51 0 111 16 142 34v-69c-41 -22 -98 -31 -142 -31c-241 0 -424 183 -424 432c0 252 189 435 452 435
c262 0 452 -183 451 -435c0 -155 -63 -267 -163 -267c-70 0 -124 54 -125 140c-25 -53 -102 -91 -185 -91c-119 0 -201 94 -201 218c0 128 94 220 223 220c130 0 222 -89 222 -212l1 -128c0 -51 27 -85 63 -85c58 0 90 87 90 205c0 214 -158 369 -376 369z" />
    <glyph glyph-name="A" unicode="A" horiz-adv-x="704" 
d="M353 631l-161 -422h321zM172 144l-54 -144h-89l263 705h120l263 -705h-89l-53 144h-361z" />
    <glyph glyph-name="B" unicode="B" horiz-adv-x="704" 
d="M550 206c0 76 -71 130 -170 130h-202v-262h202c99 0 170 56 170 132zM383 631h-205v-221h205c86 0 147 45 147 110c0 64 -61 111 -147 111zM391 0h-296v705h298c127 0 220 -78 220 -184c0 -70 -47 -130 -113 -147c78 -18 133 -89 133 -172c0 -117 -102 -202 -242 -202z
" />
    <glyph glyph-name="C" unicode="C" horiz-adv-x="821" 
d="M427 49c119 0 224 79 252 186l81 -15c-35 -141 -174 -245 -333 -245c-212 0 -366 158 -366 377s154 378 366 378c159 0 299 -109 333 -257l-82 -10c-26 110 -131 193 -251 193c-165 0 -283 -127 -283 -304c1 -176 119 -303 283 -303z" />
    <glyph glyph-name="D" unicode="D" horiz-adv-x="781" 
d="M95 0v705h215c246 0 410 -141 410 -353c0 -211 -164 -352 -410 -352h-215zM638 352c0 171 -132 279 -328 279h-132v-557h132c196 0 328 108 328 278z" />
    <glyph glyph-name="E" unicode="E" horiz-adv-x="645" 
d="M176 330v-256h410v-74h-491v705h481v-74h-400v-231h360v-70h-360z" />
    <glyph glyph-name="F" unicode="F" horiz-adv-x="581" 
d="M481 288h-303v-288h-83v705h445v-74h-362v-274h303v-69z" />
    <glyph glyph-name="G" unicode="G" horiz-adv-x="868" 
d="M440 49c160 0 283 117 283 271h-285v69h368c17 -240 -137 -414 -366 -414c-220 0 -379 159 -379 377c0 219 159 378 379 378c162 0 303 -105 335 -250l-79 -15c-29 111 -137 191 -256 191c-172 0 -296 -126 -296 -304c0 -175 124 -303 296 -303z" />
    <glyph glyph-name="H" unicode="H" horiz-adv-x="744" 
d="M177 0h-83v705h83v-301h390v301h83v-705h-83v330h-390v-330z" />
    <glyph glyph-name="I" unicode="I" horiz-adv-x="273" 
d="M95 705h83v-705h-83v705z" />
    <glyph glyph-name="J" unicode="J" horiz-adv-x="472" 
d="M293 211v494h84v-493c0 -140 -89 -232 -211 -232c-37 0 -89 8 -127 20v72c37 -11 82 -18 110 -18c85 0 145 59 144 157z" />
    <glyph glyph-name="K" unicode="K" horiz-adv-x="618" 
d="M95 0v705h83v-301l299 301h109l-334 -333l344 -372h-109l-309 341v-341h-83z" />
    <glyph glyph-name="L" unicode="L" horiz-adv-x="578" 
d="M539 0h-444v705h83v-631h361v-74z" />
    <glyph glyph-name="M" unicode="M" horiz-adv-x="946" 
d="M178 598v-598h-83v705h120l257 -592l259 592h120v-705h-83v599l-262 -599h-67z" />
    <glyph glyph-name="N" unicode="N" horiz-adv-x="747" 
d="M204 705l365 -603v603h84v-705h-109l-366 603v-603h-83v705h109z" />
    <glyph glyph-name="O" unicode="O" horiz-adv-x="880" 
d="M440 -25c-222 0 -379 156 -379 377s157 378 379 378s380 -157 380 -378s-158 -377 -380 -377zM440 656c-172 0 -296 -127 -296 -304c0 -176 124 -302 296 -303c173 0 296 127 296 303c0 177 -123 304 -296 304z" />
    <glyph glyph-name="P" unicode="P" horiz-adv-x="675" 
d="M333 631h-157v-330h157c122 0 208 68 207 164c0 97 -85 166 -207 166zM344 226h-168v-226h-81v705h250c163 0 279 -100 279 -240c0 -139 -116 -239 -280 -239z" />
    <glyph glyph-name="Q" unicode="Q" horiz-adv-x="880" 
d="M440 656c-172 0 -296 -127 -296 -304c0 -176 124 -302 296 -303c172 0 296 127 296 303c0 177 -123 304 -296 304zM820 352c0 -133 -57 -242 -151 -308l118 -154h-98l-90 116c-48 -20 -101 -31 -159 -31c-222 0 -379 156 -379 377s157 378 379 378s380 -157 380 -378z
" />
    <glyph glyph-name="R" unicode="R" horiz-adv-x="730" 
d="M400 631h-222v-291h222c104 0 178 59 178 143c0 92 -74 148 -178 148zM178 266v-266h-83v705h311c149 0 255 -92 255 -222c0 -98 -72 -183 -174 -205l180 -278h-97l-167 266h-225z" />
    <glyph glyph-name="S" unicode="S" horiz-adv-x="702" 
d="M635 205c0 -134 -106 -230 -272 -230c-173 0 -297 106 -298 253h83c0 -104 89 -179 216 -179c116 0 187 61 187 146c0 94 -100 108 -209 122c-131 18 -266 39 -266 196c0 125 107 217 266 217c161 0 278 -100 279 -239h-81c0 96 -83 165 -198 165
c-110 0 -182 -57 -182 -136c0 -94 94 -109 205 -124c129 -18 270 -39 270 -191z" />
    <glyph glyph-name="T" unicode="T" horiz-adv-x="597" 
d="M257 0v631h-236v74h555v-74h-236v-631h-83z" />
    <glyph glyph-name="U" unicode="U" horiz-adv-x="749" 
d="M577 286v419h83v-419c0 -182 -118 -311 -285 -311c-168 0 -286 129 -286 311v419h83v-419c0 -129 80 -237 203 -237c121 0 202 98 202 237z" />
    <glyph glyph-name="V" unicode="V" horiz-adv-x="695" 
d="M29 705h88l231 -642l230 642h88l-256 -705h-124z" />
    <glyph glyph-name="W" unicode="W" horiz-adv-x="1076" 
d="M601 705l160 -649l182 649h86l-200 -705h-134l-157 618l-156 -618h-135l-201 705h87l182 -649l164 649h122z" />
    <glyph glyph-name="X" unicode="X" horiz-adv-x="697" 
d="M39 0l244 372l-235 333h101l197 -284l202 284h101l-240 -333l250 -372h-100l-213 321l-208 -321h-99z" />
    <glyph glyph-name="Y" unicode="Y" horiz-adv-x="647" 
d="M282 0v262l-253 443h92l203 -363l200 363h94l-252 -443v-262h-84z" />
    <glyph glyph-name="Z" unicode="Z" horiz-adv-x="649" 
d="M46 55l433 580h-423v70h536v-55l-432 -581h442v-69h-556v55z" />
    <glyph glyph-name="bracketleft" unicode="[" horiz-adv-x="450" 
d="M169 676v-798h249l-1 -58h-322v915h323v-59h-249z" />
    <glyph glyph-name="backslash" unicode="\" horiz-adv-x="443" 
d="M109 705l301 -935h-76l-301 935h76z" />
    <glyph glyph-name="bracketright" unicode="]" horiz-adv-x="450" 
d="M356 -180h-323v58h249v798h-249v59h323v-915z" />
    <glyph glyph-name="asciicircum" unicode="^" horiz-adv-x="573" 
d="M286 654l-159 -254h-78l196 305h83l196 -305h-77z" />
    <glyph glyph-name="underscore" unicode="_" horiz-adv-x="500" 
d="M0 0h500v-65h-500v65z" />
    <glyph glyph-name="grave" unicode="`" horiz-adv-x="312" 
d="M51 734l86 1l124 -165h-80z" />
    <glyph glyph-name="a" unicode="a" horiz-adv-x="669" 
d="M320 49c111 0 193 86 193 203c0 118 -82 203 -193 203c-112 0 -193 -85 -193 -203c0 -117 81 -203 193 -203zM514 415v90h76v-505h-76v89c-43 -67 -116 -109 -203 -109c-151 0 -260 115 -260 272c0 158 109 273 260 273c87 0 160 -42 203 -110z" />
    <glyph glyph-name="b" unicode="b" horiz-adv-x="666" 
d="M346 451c-112 0 -193 -84 -193 -199c0 -114 81 -198 193 -198c111 0 193 82 193 198c0 115 -81 199 -193 199zM615 252c0 -157 -110 -272 -260 -272c-87 0 -159 41 -202 107v-87h-74v735h76v-315c43 65 114 105 200 105c151 0 260 -115 260 -273z" />
    <glyph glyph-name="c" unicode="c" horiz-adv-x="610" 
d="M314 525c122 0 225 -78 244 -185l-74 -10c-19 74 -90 128 -170 128c-106 0 -187 -87 -187 -206s80 -205 187 -205c82 0 150 53 170 125l75 -10c-23 -106 -126 -182 -245 -182c-153 0 -263 114 -263 272s111 273 263 273z" />
    <glyph glyph-name="d" unicode="d" horiz-adv-x="666" 
d="M320 451c-112 0 -193 -84 -193 -199c0 -116 82 -198 193 -198c112 0 193 84 193 198c0 115 -81 199 -193 199zM51 252c0 158 110 273 261 273c85 0 156 -40 199 -105v315h76v-735h-74v87c-43 -66 -115 -107 -201 -107c-151 0 -261 115 -261 272z" />
    <glyph glyph-name="e" unicode="e" horiz-adv-x="635" 
d="M131 294l373 -1c-14 96 -88 162 -188 162c-98 0 -171 -66 -185 -161zM51 258c0 154 112 267 268 267c154 0 265 -113 265 -268c0 -9 0 -19 -1 -30l-454 1c12 -106 88 -179 188 -179c78 0 152 48 175 114l75 -12c-31 -99 -135 -171 -247 -171c-156 0 -269 117 -269 278z
" />
    <glyph glyph-name="f" unicode="f" horiz-adv-x="378" 
d="M208 602v-97h129v-63h-129v-442h-77v442h-82v63h82v105c1 88 54 145 132 145c28 0 53 -5 76 -13v-66c-17 5 -36 9 -57 9c-44 0 -74 -31 -74 -83z" />
    <glyph glyph-name="g" unicode="g" horiz-adv-x="666" 
d="M320 55c112 0 193 83 193 197c0 118 -81 203 -193 203s-193 -85 -193 -203c0 -114 82 -197 193 -197zM325 -181c108 0 186 70 186 189v80c-44 -64 -114 -102 -199 -102c-151 0 -261 112 -261 266c0 157 110 271 261 271c87 0 156 -39 199 -102v84h76v-497
c0 -162 -109 -258 -259 -258c-131 0 -240 83 -258 198l73 10c17 -81 94 -139 182 -139z" />
    <glyph glyph-name="h" unicode="h" 
d="M79 735h76v-302c34 57 102 92 172 92c128 0 209 -94 209 -223v-302h-76v302c0 89 -53 153 -143 153c-87 0 -162 -67 -162 -160v-295h-76v735z" />
    <glyph glyph-name="i" unicode="i" horiz-adv-x="258" 
d="M91 505h76v-505h-76v505zM129 598c-31 0 -52 22 -52 52s21 51 52 51c30 0 52 -21 52 -51s-22 -52 -52 -52z" />
    <glyph glyph-name="j" unicode="j" horiz-adv-x="254" 
d="M88 -75v580h76v-588c0 -85 -53 -142 -132 -142c-29 0 -62 5 -85 13v67c19 -7 45 -10 65 -10c46 0 76 33 76 80zM126 598c-31 0 -52 22 -52 52s21 51 52 51c30 0 52 -21 52 -51s-22 -52 -52 -52z" />
    <glyph glyph-name="k" unicode="k" horiz-adv-x="515" 
d="M79 0v735h76v-434l220 204h103l-253 -235l263 -270h-103l-230 239v-239h-76z" />
    <glyph glyph-name="l" unicode="l" horiz-adv-x="233" 
d="M78 735h77v-735h-77v735z" />
    <glyph glyph-name="m" unicode="m" horiz-adv-x="928" 
d="M155 0h-76v505h74v-63c32 52 85 83 150 83c83 0 151 -42 179 -106c32 64 95 105 175 105c118 0 202 -92 202 -222v-302h-77v303c0 89 -56 152 -134 152c-84 0 -142 -63 -142 -152v-303h-76v303c0 91 -53 152 -134 152c-84 0 -141 -61 -141 -152v-303z" />
    <glyph glyph-name="n" unicode="n" 
d="M79 505h76v-71c35 56 103 91 173 91c129 0 208 -94 208 -223v-302h-76v302c0 89 -51 153 -140 153c-88 0 -165 -67 -165 -160v-295h-76v505z" />
    <glyph glyph-name="o" unicode="o" horiz-adv-x="639" 
d="M319 525c158 0 270 -113 270 -273c0 -159 -112 -272 -270 -272s-269 113 -269 272c0 160 111 273 269 273zM319 49c112 0 193 86 193 203c0 118 -81 203 -193 203s-193 -85 -193 -203c0 -117 81 -203 193 -203z" />
    <glyph glyph-name="p" unicode="p" horiz-adv-x="666" 
d="M346 54c112 0 193 84 193 198c0 117 -82 199 -193 199c-112 0 -193 -84 -193 -199c0 -114 81 -198 193 -198zM615 252c0 -157 -109 -272 -260 -272c-86 0 -157 39 -200 105v-315h-76v735h74v-87c43 66 115 107 202 107c150 0 260 -115 260 -273z" />
    <glyph glyph-name="q" unicode="q" horiz-adv-x="666" 
d="M320 54c112 0 193 84 193 198c0 115 -81 199 -193 199c-111 0 -193 -82 -193 -199c0 -114 81 -198 193 -198zM51 252c0 158 110 273 261 273c86 0 158 -41 201 -107v87h74v-735h-76v315c-43 -66 -114 -105 -199 -105c-151 0 -261 115 -261 272z" />
    <glyph glyph-name="r" unicode="r" horiz-adv-x="394" 
d="M79 505h74v-70c30 55 78 88 140 88c21 0 45 -5 68 -14v-70c-26 12 -55 16 -75 16c-79 0 -131 -71 -131 -172v-283h-76v505z" />
    <glyph glyph-name="s" unicode="s" horiz-adv-x="544" 
d="M490 145c0 -95 -88 -165 -208 -165c-130 0 -224 80 -224 189h75c0 -70 62 -120 148 -120c78 0 135 38 135 89c-1 63 -89 77 -144 85c-115 18 -204 34 -203 148c0 89 84 154 193 154c125 0 216 -72 217 -171l-75 1c-1 58 -61 100 -143 100c-65 0 -118 -36 -118 -86
c0 -45 42 -60 134 -75c93 -16 212 -37 213 -149z" />
    <glyph glyph-name="t" unicode="t" horiz-adv-x="388" 
d="M122 125v317h-83v63h86l11 118h62v-118h131v-63h-131v-314c0 -49 30 -82 78 -83c16 0 42 4 61 10v-63c-23 -7 -55 -12 -80 -12c-83 0 -135 58 -135 145z" />
    <glyph glyph-name="u" unicode="u" 
d="M526 0h-76v71c-34 -56 -103 -91 -173 -91c-129 0 -208 94 -208 223v302h76v-302c0 -89 51 -154 141 -154c88 0 164 68 164 160v296h76v-505z" />
    <glyph glyph-name="v" unicode="v" horiz-adv-x="564" 
d="M336 0h-107l-196 505h82l167 -444l167 444h82z" />
    <glyph glyph-name="w" unicode="w" horiz-adv-x="879" 
d="M318 0h-104l-171 505h80l144 -430l127 430h89l131 -430l142 430h80l-172 -505h-104l-121 416z" />
    <glyph glyph-name="x" unicode="x" horiz-adv-x="555" 
d="M136 0h-93l178 262l-168 243h90l134 -197l135 197h90l-168 -243l178 -262h-93l-142 214z" />
    <glyph glyph-name="y" unicode="y" horiz-adv-x="569" 
d="M64 -208v67c23 -8 48 -14 67 -14c74 0 96 80 129 156l-227 504h84l180 -410l158 410h81l-201 -512c-46 -115 -87 -216 -193 -216c-25 0 -55 6 -78 15z" />
    <glyph glyph-name="z" unicode="z" horiz-adv-x="556" 
d="M51 50l329 385h-319v70h434v-50l-330 -386h340v-69h-454v50z" />
    <glyph glyph-name="braceleft" unicode="{" horiz-adv-x="371" 
d="M280 -122h58v-58h-91c-67 0 -113 47 -113 115v242c0 39 -26 66 -63 66h-10v78h10c37 0 63 27 63 66v232c0 69 46 116 113 116h91v-59h-58c-43 0 -72 -30 -72 -74v-222c0 -54 -35 -93 -86 -97l-10 -1l10 -1c51 -3 86 -42 86 -96v-233c0 -44 29 -74 72 -74z" />
    <glyph glyph-name="bar" unicode="|" horiz-adv-x="262" 
d="M95 735h72v-965h-72v965z" />
    <glyph glyph-name="braceright" unicode="}" horiz-adv-x="371" 
d="M124 -180h-91v58h58c43 0 72 30 72 74v233c0 54 34 93 86 96l10 1l-10 1c-52 4 -86 43 -86 97v222c0 44 -29 74 -72 74h-58v59h91c67 0 113 -47 113 -116v-232c0 -39 25 -66 63 -66h10v-78h-10c-38 0 -63 -27 -63 -66v-242c0 -68 -46 -115 -113 -115z" />
    <glyph glyph-name="asciitilde" unicode="~" horiz-adv-x="651" 
d="M84 272l-33 46c34 50 97 84 148 84c96 0 184 -116 264 -116c39 1 78 25 103 61l34 -47c-33 -48 -92 -81 -141 -81c-95 0 -182 115 -265 115c-40 0 -81 -25 -110 -62z" />
    <glyph glyph-name="exclamdown" unicode="&#xa1;" horiz-adv-x="245" 
d="M80 -230v185l18 308h49l17 -308v-185h-84zM122 487c31 0 52 -21 52 -52c0 -30 -21 -51 -52 -51c-30 0 -52 21 -52 51c0 31 22 52 52 52z" />
    <glyph glyph-name="cent" unicode="&#xa2;" horiz-adv-x="610" 
d="M354 -17v-91h-77v90c-133 17 -226 125 -226 270s93 253 226 270v86h77v-86c104 -15 187 -87 204 -182l-74 -10c-19 74 -90 128 -170 128c-106 0 -187 -87 -187 -206s80 -205 187 -205c82 0 150 53 170 125l75 -10c-20 -94 -103 -164 -205 -179z" />
    <glyph glyph-name="sterling" unicode="&#xa3;" 
d="M553 520l-74 -14c-6 91 -50 157 -127 157c-72 0 -112 -59 -112 -141v-138h251v-69h-255c-5 -165 -47 -219 -107 -246h423v-69h-501v89c60 11 108 48 108 226h-98v69h100v138c0 121 70 208 190 208c121 0 191 -89 202 -210z" />
    <glyph glyph-name="currency" unicode="&#xa4;" horiz-adv-x="749" 
d="M375 55c112 0 193 82 193 197s-81 198 -193 198c-111 0 -192 -83 -192 -198s79 -197 192 -197zM544 460l98 92l46 -50l-95 -90c33 -43 51 -97 51 -160c0 -62 -18 -117 -51 -160l96 -90l-47 -50l-98 93c-45 -33 -103 -53 -169 -53s-123 19 -168 52l-98 -92l-48 49l96 91
c-33 43 -52 98 -52 160c0 63 19 117 52 160l-95 91l48 49l97 -92c45 33 102 52 168 52s124 -19 169 -52z" />
    <glyph glyph-name="yen" unicode="&#xa5;" horiz-adv-x="684" 
d="M62 289h218l-241 416h94l210 -374l206 374h96l-240 -416h218v-69h-238v-78h238v-70h-238v-72h-84v72h-239v70h239v78h-239v69z" />
    <glyph glyph-name="section" unicode="&#xa7;" horiz-adv-x="614" 
d="M469 278c0 80 -98 89 -161 95c-11 1 -20 2 -29 4c-81 -4 -135 -46 -135 -91c0 -77 86 -88 155 -96c9 -1 22 -3 32 -4c83 4 138 41 138 92zM96 534c0 99 90 171 209 171c108 0 199 -74 217 -176l-79 -9c-8 64 -67 111 -140 111c-76 0 -130 -37 -130 -89
c0 -73 82 -89 169 -105c99 -18 206 -39 206 -146c0 -63 -51 -116 -125 -130c58 -16 101 -68 101 -133c0 -108 -92 -183 -219 -183c-111 0 -202 74 -219 176l81 10c9 -65 67 -112 141 -112c77 0 133 37 133 99c0 81 -84 94 -171 107c-99 15 -203 39 -203 145
c0 63 49 116 121 130c-53 17 -92 69 -92 134z" />
    <glyph glyph-name="dieresis" unicode="&#xa8;" horiz-adv-x="444" 
d="M103 588c-31 0 -52 22 -52 51c0 30 21 51 52 51c30 0 52 -21 52 -51c0 -29 -22 -51 -52 -51zM342 588c-31 0 -52 22 -52 51c0 30 21 51 52 51c30 0 52 -21 52 -51c0 -29 -22 -51 -52 -51z" />
    <glyph glyph-name="copyright" unicode="&#xa9;" horiz-adv-x="937" 
d="M469 601c-205 0 -350 -148 -350 -348c0 -204 145 -350 350 -350s350 146 350 350c0 200 -145 348 -350 348zM476 522c114 0 214 -74 238 -176l-54 -12c-23 78 -100 132 -187 132c-117 0 -202 -89 -202 -214s84 -214 205 -214c89 0 169 59 191 141l48 -13
c-23 -107 -124 -184 -240 -184c-156 0 -267 113 -267 270c0 158 111 270 268 270zM468 -150c-238 0 -407 167 -407 403c0 231 169 401 407 401c239 0 409 -166 409 -401c0 -236 -170 -403 -409 -403z" />
    <glyph glyph-name="guillemotleft" unicode="&#xab;" horiz-adv-x="638" 
d="M341 505l-203 -253l203 -252h-91l-201 252l201 253h91zM577 505l-204 -253l204 -252h-92l-201 252l201 253h92z" />
    <glyph glyph-name="logicalnot" unicode="&#xac;" horiz-adv-x="642" 
d="M521 70v218h-470v66h530v-284h-60z" />
    <glyph glyph-name="registered" unicode="&#xae;" horiz-adv-x="937" 
d="M119 254c0 -205 145 -350 350 -350s350 145 350 350c0 199 -145 347 -350 347s-350 -148 -350 -347zM509 456h-144v-200h149c62 0 106 41 106 103c0 61 -45 97 -111 97zM468 -149c-238 0 -407 167 -407 403c0 230 169 401 407 401c239 0 409 -166 409 -401
c0 -236 -170 -403 -409 -403zM557 214l118 -203h-68l-112 197h-130v-197h-60v494h215c93 0 160 -63 160 -149c0 -73 -49 -129 -123 -142z" />
    <glyph glyph-name="macron" unicode="&#xaf;" horiz-adv-x="416" 
d="M365 668v-54h-314v54h314z" />
    <glyph glyph-name="degree" unicode="&#xb0;" horiz-adv-x="503" 
d="M252 347c-121 0 -201 78 -201 194c0 117 80 195 201 195c120 0 200 -78 200 -195c0 -116 -80 -194 -200 -194zM252 681c-85 0 -141 -56 -141 -140c0 -83 56 -139 141 -139c84 0 140 56 140 139c0 84 -56 140 -140 140z" />
    <glyph glyph-name="plusminus" unicode="&#xb1;" horiz-adv-x="567" 
d="M51 71h465v-71h-465v71zM323 186h-79v128h-193v71h193v120h79v-120h193v-71h-193v-128z" />
    <glyph glyph-name="acute" unicode="&#xb4;" horiz-adv-x="312" 
d="M261 734l-130 -164h-80l123 165z" />
    <glyph glyph-name="paragraph" unicode="&#xb6;" horiz-adv-x="713" 
d="M628 645h-92v-868h-69v868h-125v-868h-69v549c-134 0 -223 76 -222 189c1 114 90 190 222 190h355v-60z" />
    <glyph glyph-name="periodcentered" unicode="&#xb7;" horiz-adv-x="206" 
d="M103 235c-31 0 -52 22 -52 51c0 30 21 51 52 51c30 0 52 -21 52 -51c0 -29 -22 -51 -52 -51z" />
    <glyph glyph-name="cedilla" unicode="&#xb8;" horiz-adv-x="320" 
d="M144 -99h-41l15 109h49l-10 -76c68 0 113 -42 113 -105c0 -59 -45 -99 -110 -99c-56 0 -100 34 -109 82l42 11c10 -30 36 -51 64 -51c37 0 61 24 61 60c0 42 -29 69 -74 69z" />
    <glyph glyph-name="guillemotright" unicode="&#xbb;" horiz-adv-x="636" 
d="M353 252l-201 -252h-92l203 252l-203 253h92zM588 252l-201 -252h-92l204 252l-204 253h92z" />
    <glyph glyph-name="questiondown" unicode="&#xbf;" horiz-adv-x="601" 
d="M268 318h77c0 -112 -38 -159 -105 -205c-50 -35 -96 -67 -96 -132c0 -79 65 -140 151 -140c92 0 156 70 168 167l78 -15c-17 -131 -114 -226 -248 -226c-131 0 -232 90 -232 214c0 95 55 135 125 182c58 38 82 73 82 155zM307 510c30 0 52 -22 52 -52s-22 -52 -52 -52
c-31 0 -52 22 -52 52s21 52 52 52z" />
    <glyph glyph-name="Agrave" unicode="&#xc0;" horiz-adv-x="704" 
d="M353 631l-161 -422h321zM172 144l-54 -144h-89l263 705h120l263 -705h-89l-53 144h-361zM309 775l-114 144h91l110 -144h-87z" />
    <glyph glyph-name="Aacute" unicode="&#xc1;" horiz-adv-x="704" 
d="M353 631l-161 -422h321zM172 144l-54 -144h-89l263 705h120l263 -705h-89l-53 144h-361zM303 775l111 144h90l-114 -144h-87z" />
    <glyph glyph-name="Acircumflex" unicode="&#xc2;" horiz-adv-x="704" 
d="M353 631l-161 -422h321zM172 144l-54 -144h-89l263 705h120l263 -705h-89l-53 144h-361zM354 876l-88 -101h-77l124 145h82l124 -145h-76z" />
    <glyph glyph-name="Atilde" unicode="&#xc3;" horiz-adv-x="704" 
d="M353 631l-161 -422h321zM172 144l-54 -144h-89l263 705h120l263 -705h-89l-53 144h-361zM227 810l-42 30c18 39 59 66 108 66c70 0 90 -56 139 -56c29 0 52 19 65 45l42 -29c-17 -40 -59 -68 -111 -68c-74 0 -91 56 -137 56c-26 0 -49 -18 -64 -44z" />
    <glyph glyph-name="Adieresis" unicode="&#xc4;" horiz-adv-x="704" 
d="M353 631l-161 -422h321zM172 144l-54 -144h-89l263 705h120l263 -705h-89l-53 144h-361zM245 785c-30 0 -52 21 -52 51s22 51 52 51c31 0 52 -21 52 -51s-21 -51 -52 -51zM464 785c-30 0 -52 21 -52 51s22 51 52 51c31 0 52 -21 52 -51s-21 -51 -52 -51z" />
    <glyph glyph-name="Aring" unicode="&#xc5;" horiz-adv-x="704" 
d="M353 631l-161 -422h321zM352 885c-25 0 -43 -17 -43 -41c0 -25 18 -43 43 -43c24 0 42 18 42 43c0 24 -18 41 -42 41zM172 144l-54 -144h-89l263 705h120l263 -705h-89l-53 144h-361zM352 754c-55 0 -94 38 -94 89c0 52 39 89 93 89s93 -38 93 -89c0 -52 -39 -89 -92 -89
z" />
    <glyph glyph-name="AE" unicode="&#xc6;" horiz-adv-x="939" 
d="M231 214h223v430zM530 74h350v-74h-426v143h-257l-75 -143h-93l365 705h477v-75h-340v-237h300v-70h-301v-249z" />
    <glyph glyph-name="Ccedilla" unicode="&#xc7;" horiz-adv-x="821" 
d="M433 -99h-42l10 75c-199 12 -340 166 -340 376c0 219 154 378 366 378c159 0 299 -109 333 -257l-82 -10c-26 110 -131 193 -251 193c-165 0 -283 -127 -283 -304c1 -176 119 -303 283 -303c119 0 224 79 252 186l81 -15c-33 -134 -160 -235 -310 -244l-5 -42
c68 0 113 -42 113 -105c0 -59 -45 -99 -110 -99c-56 0 -100 34 -109 82l42 11c10 -30 36 -51 65 -51c36 0 61 24 61 60c0 42 -29 69 -74 69z" />
    <glyph glyph-name="Egrave" unicode="&#xc8;" horiz-adv-x="645" 
d="M176 330v-256h410v-74h-491v705h481v-74h-400v-231h360v-70h-360zM179 919h91l110 -144h-87z" />
    <glyph glyph-name="Eacute" unicode="&#xc9;" horiz-adv-x="645" 
d="M176 330v-256h410v-74h-491v705h481v-74h-400v-231h360v-70h-360zM398 919h90l-114 -144h-87z" />
    <glyph glyph-name="Ecircumflex" unicode="&#xca;" horiz-adv-x="645" 
d="M176 330v-256h410v-74h-491v705h481v-74h-400v-231h360v-70h-360zM250 775h-77l124 145h82l124 -145h-76l-89 101z" />
    <glyph glyph-name="Edieresis" unicode="&#xcb;" horiz-adv-x="645" 
d="M176 330v-256h410v-74h-491v705h481v-74h-400v-231h360v-70h-360zM229 785c-30 0 -52 21 -52 51s22 51 52 51c31 0 52 -21 52 -51s-21 -51 -52 -51zM448 785c-30 0 -52 21 -52 51s22 51 52 51s52 -21 52 -51s-22 -51 -52 -51z" />
    <glyph glyph-name="Igrave" unicode="&#xcc;" horiz-adv-x="275" 
d="M95 705h84v-705h-84v705zM-22 919h90l111 -144h-87z" />
    <glyph glyph-name="Iacute" unicode="&#xcd;" horiz-adv-x="276" 
d="M96 705h84v-705h-84v705zM197 919h91l-114 -144h-87z" />
    <glyph glyph-name="Icircumflex" unicode="&#xce;" horiz-adv-x="275" 
d="M96 705h84v-705h-84v705zM49 775h-76l123 145h83l123 -145h-75l-90 101z" />
    <glyph glyph-name="Idieresis" unicode="&#xcf;" horiz-adv-x="275" 
d="M95 705h84v-705h-84v705zM28 785c-31 0 -52 21 -52 51s21 51 52 51c30 0 52 -21 52 -51s-22 -51 -52 -51zM247 785c-31 0 -52 21 -52 51s21 51 52 51c30 0 52 -21 52 -51s-22 -51 -52 -51z" />
    <glyph glyph-name="Ntilde" unicode="&#xd1;" horiz-adv-x="747" 
d="M95 705h109l365 -603v603h84v-705h-109l-366 603v-603h-83v705zM245 810l-41 30c17 39 59 66 107 66c70 0 90 -56 140 -56c28 0 52 19 65 45l42 -29c-18 -40 -60 -68 -112 -68c-74 0 -90 56 -136 56c-27 0 -49 -18 -65 -44z" />
    <glyph glyph-name="Ograve" unicode="&#xd2;" horiz-adv-x="880" 
d="M440 -25c-222 0 -379 156 -379 377s157 378 379 378s380 -157 380 -378s-158 -377 -380 -377zM440 656c-172 0 -296 -127 -296 -304c0 -176 124 -302 296 -303c173 0 296 127 296 303c0 177 -123 304 -296 304zM281 919h91l110 -144h-87z" />
    <glyph glyph-name="Oacute" unicode="&#xd3;" horiz-adv-x="880" 
d="M440 -25c-222 0 -379 156 -379 377s157 378 379 378s380 -157 380 -378s-158 -377 -380 -377zM440 656c-172 0 -296 -127 -296 -304c0 -176 124 -302 296 -303c173 0 296 127 296 303c0 177 -123 304 -296 304zM499 919h91l-114 -144h-87z" />
    <glyph glyph-name="Ocircumflex" unicode="&#xd4;" horiz-adv-x="880" 
d="M440 656c-172 0 -296 -127 -296 -304c0 -176 124 -302 296 -303c173 0 296 127 296 303c0 177 -123 304 -296 304zM440 -25c-222 0 -379 156 -379 377s157 378 379 378s380 -157 380 -378s-158 -377 -380 -377zM440 876l-88 -101h-77l124 145h82l124 -145h-76z" />
    <glyph glyph-name="Otilde" unicode="&#xd5;" horiz-adv-x="880" 
d="M440 656c-172 0 -296 -127 -296 -304c0 -176 124 -302 296 -303c173 0 296 127 296 303c0 177 -123 304 -296 304zM440 -25c-222 0 -379 156 -379 377s157 378 379 378s380 -157 380 -378s-158 -377 -380 -377zM310 810l-41 30c18 39 59 66 108 66c69 0 89 -56 139 -56
c28 0 52 19 65 45l42 -29c-18 -40 -60 -68 -112 -68c-74 0 -90 56 -136 56c-27 0 -49 -18 -65 -44z" />
    <glyph glyph-name="Odieresis" unicode="&#xd6;" horiz-adv-x="880" 
d="M440 -25c-222 0 -379 156 -379 377s157 378 379 378s380 -157 380 -378s-158 -377 -380 -377zM440 656c-172 0 -296 -127 -296 -304c0 -176 124 -302 296 -303c173 0 296 127 296 303c0 177 -123 304 -296 304zM331 785c-30 0 -52 21 -52 51s22 51 52 51s52 -21 52 -51
s-22 -51 -52 -51zM550 785c-31 0 -52 21 -52 51s21 51 52 51c30 0 52 -21 52 -51s-22 -51 -52 -51z" />
    <glyph glyph-name="multiply" unicode="&#xd7;" horiz-adv-x="395" 
d="M97 141l-46 46l101 109l-101 109l47 46l99 -107l100 107l47 -46l-102 -109l102 -109l-47 -46l-100 107z" />
    <glyph glyph-name="Oslash" unicode="&#xd8;" horiz-adv-x="860" 
d="M430 656c-166 0 -286 -128 -286 -304c0 -112 50 -204 129 -256l271 537c-35 15 -73 23 -114 23zM430 49c166 0 286 127 286 303c0 105 -43 192 -112 245l-268 -533c29 -10 61 -15 94 -15zM301 -4l-67 -136h-79l83 165c-109 63 -177 182 -177 327c0 219 155 378 369 378
c53 0 103 -10 147 -29l80 159l79 1l-96 -192c98 -66 160 -180 160 -317c0 -218 -155 -377 -370 -377c-46 0 -89 8 -129 21z" />
    <glyph glyph-name="Ugrave" unicode="&#xd9;" horiz-adv-x="749" 
d="M577 286v419h83v-419c0 -182 -118 -311 -285 -311c-168 0 -286 129 -286 311v419h83v-419c0 -129 80 -237 203 -237c121 0 202 98 202 237zM218 919h90l110 -144h-86z" />
    <glyph glyph-name="Uacute" unicode="&#xda;" horiz-adv-x="749" 
d="M577 286v419h83v-419c0 -182 -118 -311 -285 -311c-168 0 -286 129 -286 311v419h83v-419c0 -129 80 -237 203 -237c121 0 202 98 202 237zM432 919h90l-114 -144h-87z" />
    <glyph glyph-name="Ucircumflex" unicode="&#xdb;" horiz-adv-x="749" 
d="M577 286v419h83v-419c0 -182 -118 -311 -285 -311c-168 0 -286 129 -286 311v419h83v-419c0 -129 80 -237 203 -237c121 0 202 98 202 237zM374 876l-88 -101h-77l124 145h83l123 -145h-76z" />
    <glyph glyph-name="Udieresis" unicode="&#xdc;" horiz-adv-x="749" 
d="M577 286v419h83v-419c0 -182 -118 -311 -285 -311c-168 0 -286 129 -286 311v419h83v-419c0 -129 80 -237 203 -237c121 0 202 98 202 237zM265 785c-30 0 -52 21 -52 51s22 51 52 51c31 0 52 -21 52 -51s-21 -51 -52 -51zM484 785c-30 0 -52 21 -52 51s22 51 52 51
c31 0 52 -21 52 -51s-21 -51 -52 -51z" />
    <glyph glyph-name="Yacute" unicode="&#xdd;" horiz-adv-x="647" 
d="M282 0v262l-253 443h92l203 -363l200 363h94l-252 -443v-262h-84zM380 919h91l-114 -144h-87z" />
    <glyph glyph-name="germandbls" unicode="&#xdf;" horiz-adv-x="684" 
d="M168 472v-472h-83v480c0 140 100 242 242 242c130 0 226 -82 226 -191c0 -82 -48 -144 -117 -154c104 -13 178 -94 177 -201c0 -117 -91 -201 -212 -201c-60 0 -114 20 -162 46l25 70c40 -25 86 -43 132 -43c80 0 134 56 134 135c0 93 -59 157 -177 157h-42v70h43
c67 0 115 47 115 115c0 71 -60 123 -144 123c-93 0 -157 -69 -157 -176z" />
    <glyph glyph-name="agrave" unicode="&#xe0;" horiz-adv-x="669" 
d="M320 49c111 0 193 86 193 203c0 118 -82 203 -193 203c-112 0 -193 -85 -193 -203c0 -117 81 -203 193 -203zM514 415v90h76v-505h-76v89c-43 -67 -116 -109 -203 -109c-151 0 -260 115 -260 272c0 158 109 273 260 273c87 0 160 -42 203 -110zM274 565l-130 164l87 1
l123 -165h-80z" />
    <glyph glyph-name="aacute" unicode="&#xe1;" horiz-adv-x="669" 
d="M320 49c111 0 193 86 193 203c0 118 -82 203 -193 203c-112 0 -193 -85 -193 -203c0 -117 81 -203 193 -203zM514 415v90h76v-505h-76v89c-43 -67 -116 -109 -203 -109c-151 0 -260 115 -260 272c0 158 109 273 260 273c87 0 160 -42 203 -110zM265 565l124 164h86
l-130 -164h-80z" />
    <glyph glyph-name="acircumflex" unicode="&#xe2;" horiz-adv-x="669" 
d="M320 49c111 0 193 86 193 203c0 118 -82 203 -193 203c-112 0 -193 -85 -193 -203c0 -117 81 -203 193 -203zM514 415v90h76v-505h-76v89c-43 -67 -116 -109 -203 -109c-151 0 -260 115 -260 272c0 158 109 273 260 273c87 0 160 -42 203 -110zM312 685l-89 -120h-72
l120 165h81l122 -165h-74z" />
    <glyph glyph-name="atilde" unicode="&#xe3;" horiz-adv-x="669" 
d="M320 49c111 0 193 86 193 203c0 118 -82 203 -193 203c-112 0 -193 -85 -193 -203c0 -117 81 -203 193 -203zM514 415v90h76v-505h-76v89c-43 -67 -116 -109 -203 -109c-151 0 -260 115 -260 272c0 158 109 273 260 273c87 0 160 -42 203 -110zM197 592l-42 23
c18 39 61 66 107 66c68 0 92 -58 143 -58c27 0 51 16 61 38l43 -23c-18 -39 -59 -67 -111 -67c-73 0 -93 57 -142 57c-25 0 -47 -14 -59 -36z" />
    <glyph glyph-name="adieresis" unicode="&#xe4;" horiz-adv-x="669" 
d="M320 49c111 0 193 86 193 203c0 118 -82 203 -193 203c-112 0 -193 -85 -193 -203c0 -117 81 -203 193 -203zM514 415v90h76v-505h-76v89c-43 -67 -116 -109 -203 -109c-151 0 -260 115 -260 272c0 158 109 273 260 273c87 0 160 -42 203 -110zM192 582
c-31 0 -53 21 -53 51s22 51 53 51c30 0 52 -21 52 -51s-22 -51 -52 -51zM430 582c-30 0 -52 21 -52 51s22 51 52 51c31 0 52 -21 52 -51s-21 -51 -52 -51z" />
    <glyph glyph-name="aring" unicode="&#xe5;" horiz-adv-x="669" 
d="M320 49c111 0 193 86 193 203c0 118 -82 203 -193 203c-112 0 -193 -85 -193 -203c0 -117 81 -203 193 -203zM311 738c-41 0 -70 -28 -69 -68c0 -40 28 -69 69 -69c39 0 68 29 68 69s-29 68 -68 68zM514 415v90h76v-505h-76v89c-43 -67 -116 -109 -203 -109
c-151 0 -260 115 -260 272c0 158 109 273 260 273c87 0 160 -42 203 -110zM311 555c-70 0 -120 48 -120 115s50 115 120 115s119 -48 119 -115s-49 -115 -119 -115z" />
    <glyph glyph-name="ae" unicode="&#xe6;" horiz-adv-x="1083" 
d="M320 460c-113 0 -193 -87 -193 -208c0 -120 81 -207 193 -207c109 0 193 83 193 207c0 121 -81 208 -193 208zM581 279h374c-4 102 -82 176 -190 176c-102 0 -175 -74 -184 -176zM509 420v85h61v-92c36 69 104 112 197 112c154 0 265 -112 265 -266c0 -13 -1 -30 -2 -45
h-446c16 -99 89 -165 189 -165c78 0 148 47 166 111l72 -10c-18 -99 -117 -170 -234 -170c-92 0 -172 46 -207 116v-96h-61v84c-45 -64 -116 -104 -202 -104c-149 0 -256 115 -256 272c0 158 107 273 256 273c86 0 158 -41 202 -105z" />
    <glyph glyph-name="ccedilla" unicode="&#xe7;" horiz-adv-x="610" 
d="M328 -99h-42l11 79c-144 9 -246 120 -246 272c0 158 111 273 263 273c122 0 225 -78 244 -185l-74 -10c-19 74 -90 128 -170 128c-106 0 -187 -87 -187 -206s80 -205 187 -205c82 0 150 53 170 125l75 -10c-20 -96 -108 -168 -213 -180l-6 -48c68 0 113 -42 113 -105
c0 -59 -45 -99 -110 -99c-56 0 -100 34 -109 82l42 11c10 -30 36 -51 64 -51c37 0 62 24 62 60c0 42 -29 69 -74 69z" />
    <glyph glyph-name="egrave" unicode="&#xe8;" horiz-adv-x="635" 
d="M131 294l373 -1c-14 96 -88 162 -188 162c-98 0 -171 -66 -185 -161zM51 258c0 154 112 267 268 267c154 0 265 -113 265 -268c0 -9 0 -19 -1 -30l-454 1c12 -106 88 -179 188 -179c78 0 152 48 175 114l75 -12c-31 -99 -135 -171 -247 -171c-156 0 -269 117 -269 278z
M284 565l-130 164l86 1l124 -165h-80z" />
    <glyph glyph-name="eacute" unicode="&#xe9;" horiz-adv-x="635" 
d="M131 294l373 -1c-14 96 -88 162 -188 162c-98 0 -171 -66 -185 -161zM51 258c0 154 112 267 268 267c154 0 265 -113 265 -268c0 -9 0 -19 -1 -30l-454 1c12 -106 88 -179 188 -179c78 0 152 48 175 114l75 -12c-31 -99 -135 -171 -247 -171c-156 0 -269 117 -269 278z
M275 565l123 164h87l-130 -164h-80z" />
    <glyph glyph-name="ecircumflex" unicode="&#xea;" horiz-adv-x="635" 
d="M131 294l373 -1c-14 96 -88 162 -188 162c-98 0 -171 -66 -185 -161zM51 258c0 154 112 267 268 267c154 0 265 -113 265 -268c0 -9 0 -19 -1 -30l-454 1c12 -106 88 -179 188 -179c78 0 152 48 175 114l75 -12c-31 -99 -135 -171 -247 -171c-156 0 -269 117 -269 278z
M322 685l-89 -120h-72l120 165h81l121 -165h-73z" />
    <glyph glyph-name="edieresis" unicode="&#xeb;" horiz-adv-x="635" 
d="M131 294l373 -1c-14 96 -88 162 -188 162c-98 0 -171 -66 -185 -161zM51 258c0 154 112 267 268 267c154 0 265 -113 265 -268c0 -9 0 -19 -1 -30l-454 1c12 -106 88 -179 188 -179c78 0 152 48 175 114l75 -12c-31 -99 -135 -171 -247 -171c-156 0 -269 117 -269 278z
M201 582c-30 0 -52 21 -52 51s22 51 52 51c31 0 52 -21 52 -51s-21 -51 -52 -51zM440 582c-30 0 -52 21 -52 51s22 51 52 51c31 0 52 -21 52 -51s-21 -51 -52 -51z" />
    <glyph glyph-name="igrave" unicode="&#xec;" horiz-adv-x="233" 
d="M79 505h77v-505h-77v505zM-50 729l87 1l123 -165h-80z" />
    <glyph glyph-name="iacute" unicode="&#xed;" horiz-adv-x="237" 
d="M81 505h76v-505h-76v505zM197 729h86l-130 -164h-80z" />
    <glyph glyph-name="icircumflex" unicode="&#xee;" horiz-adv-x="232" 
d="M77 505h76v-505h-76v505zM27 565h-72l120 165h81l121 -165h-73l-88 120z" />
    <glyph glyph-name="idieresis" unicode="&#xef;" horiz-adv-x="239" 
d="M81 505h77v-505h-77v505zM0 582c-31 0 -52 21 -52 51s21 51 52 51s52 -21 52 -51s-21 -51 -52 -51zM239 582c-31 0 -52 21 -52 51s21 51 52 51c30 0 52 -21 52 -51s-22 -51 -52 -51z" />
    <glyph glyph-name="ntilde" unicode="&#xf1;" 
d="M79 0v505h76v-71c35 56 103 91 173 91c129 0 208 -94 208 -223v-302h-76v302c0 89 -51 153 -140 153c-88 0 -165 -67 -165 -160v-295h-76zM172 592l-41 23c18 39 60 66 107 66c68 0 92 -58 142 -58c27 0 51 16 62 38l43 -23c-18 -39 -60 -67 -111 -67
c-74 0 -93 57 -142 57c-26 0 -48 -14 -60 -36z" />
    <glyph glyph-name="ograve" unicode="&#xf2;" horiz-adv-x="640" 
d="M320 525c157 0 270 -113 270 -273c0 -159 -113 -272 -270 -272c-158 0 -269 113 -269 272c0 160 111 273 269 273zM320 49c112 0 193 86 193 203c0 118 -81 203 -193 203s-193 -85 -193 -203c0 -117 81 -203 193 -203zM153 729l87 1l123 -165h-79z" />
    <glyph glyph-name="oacute" unicode="&#xf3;" horiz-adv-x="640" 
d="M320 525c157 0 270 -113 270 -273c0 -159 -113 -272 -270 -272c-158 0 -269 113 -269 272c0 160 111 273 269 273zM320 49c112 0 193 86 193 203c0 118 -81 203 -193 203s-193 -85 -193 -203c0 -117 81 -203 193 -203zM398 729h87l-131 -164h-80z" />
    <glyph glyph-name="ocircumflex" unicode="&#xf4;" horiz-adv-x="640" 
d="M320 49c112 0 193 86 193 203c0 118 -81 203 -193 203s-193 -85 -193 -203c0 -117 81 -203 193 -203zM320 525c157 0 270 -113 270 -273c0 -159 -113 -272 -270 -272c-158 0 -269 113 -269 272c0 160 111 273 269 273zM321 685l-89 -120h-72l120 165h82l121 -165h-74z
" />
    <glyph glyph-name="otilde" unicode="&#xf5;" horiz-adv-x="640" 
d="M320 49c112 0 193 86 193 203c0 118 -81 203 -193 203s-193 -85 -193 -203c0 -117 81 -203 193 -203zM320 525c157 0 270 -113 270 -273c0 -159 -113 -272 -270 -272c-158 0 -269 113 -269 272c0 160 111 273 269 273zM196 592l-42 23c18 39 61 66 108 66
c68 0 92 -58 142 -58c27 0 51 16 62 38l42 -23c-17 -39 -59 -67 -111 -67c-73 0 -92 57 -142 57c-25 0 -47 -14 -59 -36z" />
    <glyph glyph-name="odieresis" unicode="&#xf6;" horiz-adv-x="640" 
d="M320 525c157 0 270 -113 270 -273c0 -159 -113 -272 -270 -272c-158 0 -269 113 -269 272c0 160 111 273 269 273zM320 49c112 0 193 86 193 203c0 118 -81 203 -193 203s-193 -85 -193 -203c0 -117 81 -203 193 -203zM201 582c-31 0 -52 21 -52 51s21 51 52 51
c30 0 52 -21 52 -51s-22 -51 -52 -51zM440 582c-31 0 -52 21 -52 51s21 51 52 51c30 0 52 -21 52 -51s-22 -51 -52 -51z" />
    <glyph glyph-name="divide" unicode="&#xf7;" horiz-adv-x="552" 
d="M276 20c-28 0 -48 19 -48 47c0 26 20 45 48 45c27 0 47 -19 47 -45c0 -28 -20 -47 -47 -47zM276 417c-28 0 -48 19 -48 47c0 26 20 45 48 45c27 0 47 -19 47 -45c0 -28 -20 -47 -47 -47zM51 308h450v-70h-450v70z" />
    <glyph glyph-name="oslash" unicode="&#xf8;" horiz-adv-x="645" 
d="M323 465c-119 0 -203 -89 -203 -213c0 -77 34 -141 88 -178l189 377c-23 9 -48 14 -74 14zM323 40c117 0 201 89 201 212c0 70 -27 128 -71 166l-186 -371c17 -5 36 -7 56 -7zM239 -9l-35 -71h-73l48 96c-79 46 -128 131 -128 236c0 160 113 273 272 273
c37 0 71 -6 103 -18l46 93h73l-62 -123c69 -47 111 -128 111 -225c0 -159 -113 -272 -271 -272c-30 0 -58 4 -84 11z" />
    <glyph glyph-name="ugrave" unicode="&#xf9;" 
d="M526 0h-76v71c-34 -56 -103 -91 -173 -91c-129 0 -208 94 -208 223v302h76v-302c0 -89 51 -154 141 -154c88 0 164 68 164 160v296h76v-505zM140 729h87l124 -165h-80z" />
    <glyph glyph-name="uacute" unicode="&#xfa;" 
d="M526 0h-76v71c-34 -56 -103 -91 -173 -91c-129 0 -208 94 -208 223v302h76v-302c0 -89 51 -154 141 -154c88 0 164 68 164 160v296h76v-505zM373 729l87 -1l-131 -164h-80z" />
    <glyph glyph-name="ucircumflex" unicode="&#xfb;" 
d="M526 0h-76v71c-34 -56 -103 -91 -173 -91c-129 0 -208 94 -208 223v302h76v-302c0 -89 51 -154 141 -154c88 0 164 68 164 160v296h76v-505zM209 564h-72l120 165h82l121 -165h-74l-88 121z" />
    <glyph glyph-name="udieresis" unicode="&#xfc;" 
d="M526 0h-76v71c-34 -56 -103 -91 -173 -91c-129 0 -208 94 -208 223v302h76v-302c0 -89 51 -154 141 -154c88 0 164 68 164 160v296h76v-505zM178 581c-31 0 -52 22 -52 51c0 30 21 51 52 51c30 0 52 -21 52 -51c0 -29 -22 -51 -52 -51zM417 581c-31 0 -52 22 -52 51
c0 30 21 51 52 51c30 0 52 -21 52 -51c0 -29 -22 -51 -52 -51z" />
    <glyph glyph-name="yacute" unicode="&#xfd;" horiz-adv-x="569" 
d="M64 -208v67c23 -8 48 -14 67 -14c74 0 96 80 129 156l-227 504h84l180 -410l158 410h81l-201 -512c-46 -115 -87 -216 -193 -216c-25 0 -55 6 -78 15zM237 565l123 164h87l-131 -164h-79z" />
    <glyph glyph-name="ydieresis" unicode="&#xff;" horiz-adv-x="569" 
d="M64 -208v67c23 -8 48 -14 67 -14c74 0 96 80 129 156l-227 504h84l180 -410l158 410h81l-201 -512c-46 -115 -87 -216 -193 -216c-25 0 -55 6 -78 15zM165 582c-30 0 -52 21 -52 51s22 51 52 51c31 0 52 -21 52 -51s-21 -51 -52 -51zM404 582c-30 0 -52 21 -52 51
s22 51 52 51c31 0 52 -21 52 -51s-21 -51 -52 -51z" />
    <glyph glyph-name="Amacron" unicode="&#x100;" horiz-adv-x="704" 
d="M353 631l-161 -422h321zM172 144l-54 -144h-89l263 705h120l263 -705h-89l-53 144h-361zM198 858h314v-53h-314v53z" />
    <glyph glyph-name="amacron" unicode="&#x101;" horiz-adv-x="669" 
d="M320 49c111 0 193 86 193 203c0 118 -82 203 -193 203c-112 0 -193 -85 -193 -203c0 -117 81 -203 193 -203zM514 415v90h76v-505h-76v89c-43 -67 -116 -109 -203 -109c-151 0 -260 115 -260 272c0 158 109 273 260 273c87 0 160 -42 203 -110zM154 648h314v-53h-314v53z
" />
    <glyph glyph-name="Abreve" unicode="&#x102;" horiz-adv-x="704" 
d="M353 631l-161 -422h321zM172 144l-54 -144h-89l263 705h120l263 -705h-89l-53 144h-361zM427 917h59c0 -83 -45 -142 -131 -142c-87 0 -132 60 -132 142h60c0 -50 30 -86 72 -86s72 36 72 86z" />
    <glyph glyph-name="abreve" unicode="&#x103;" horiz-adv-x="669" 
d="M320 49c111 0 193 86 193 203c0 118 -82 203 -193 203c-112 0 -193 -85 -193 -203c0 -117 81 -203 193 -203zM514 415v90h76v-505h-76v89c-43 -67 -116 -109 -203 -109c-151 0 -260 115 -260 272c0 158 109 273 260 273c87 0 160 -42 203 -110zM382 725h61
c0 -83 -41 -160 -132 -160s-132 76 -132 160h61c0 -61 29 -104 71 -104c41 0 71 43 71 104z" />
    <glyph glyph-name="Aogonek" unicode="&#x104;" horiz-adv-x="752" 
d="M353 631l-161 -422h321zM587 0h-1l-53 144h-361l-54 -144h-89l263 705h120l263 -705h-11c-81 -22 -108 -60 -108 -101c0 -73 69 -119 167 -122v-56c-128 0 -219 70 -219 167c0 49 31 89 83 112z" />
    <glyph glyph-name="aogonek" unicode="&#x105;" horiz-adv-x="720" 
d="M320 49c111 0 193 86 193 203c0 118 -82 203 -193 203c-112 0 -193 -85 -193 -203c0 -117 81 -203 193 -203zM514 4v85c-43 -67 -116 -109 -203 -109c-151 0 -260 115 -260 272c0 158 109 273 260 273c87 0 160 -42 203 -110v90h76v-505h-8c-81 -22 -109 -60 -109 -101
c0 -73 69 -119 168 -122v-56c-128 0 -219 69 -219 167c0 52 34 94 92 116z" />
    <glyph glyph-name="Cacute" unicode="&#x106;" horiz-adv-x="821" 
d="M427 49c119 0 224 79 252 186l81 -15c-35 -141 -174 -245 -333 -245c-212 0 -366 158 -366 377s154 378 366 378c159 0 299 -109 333 -257l-82 -10c-26 110 -131 193 -251 193c-165 0 -283 -127 -283 -304c1 -176 119 -303 283 -303zM470 919h91l-114 -144h-87z" />
    <glyph glyph-name="cacute" unicode="&#x107;" horiz-adv-x="610" 
d="M314 525c122 0 225 -78 244 -185l-74 -10c-19 74 -90 128 -170 128c-106 0 -187 -87 -187 -206s80 -205 187 -205c82 0 150 53 170 125l75 -10c-23 -106 -126 -182 -245 -182c-153 0 -263 114 -263 272s111 273 263 273zM392 729h86l-130 -164h-80z" />
    <glyph glyph-name="Ccircumflex" unicode="&#x108;" horiz-adv-x="821" 
d="M427 49c119 0 224 79 252 186l81 -15c-35 -141 -174 -245 -333 -245c-212 0 -366 158 -366 377s154 378 366 378c159 0 299 -109 333 -257l-82 -10c-26 110 -131 193 -251 193c-165 0 -283 -127 -283 -304c1 -176 119 -303 283 -303zM322 775h-76l123 145h83l123 -145
h-75l-90 101z" />
    <glyph glyph-name="ccircumflex" unicode="&#x109;" horiz-adv-x="610" 
d="M314 525c122 0 225 -78 244 -185l-74 -10c-19 74 -90 128 -170 128c-106 0 -187 -87 -187 -206s80 -205 187 -205c82 0 150 53 170 125l75 -10c-23 -106 -126 -182 -245 -182c-153 0 -263 114 -263 272s111 273 263 273zM226 565h-72l120 165h81l122 -165h-74l-88 120z
" />
    <glyph glyph-name="Cdotaccent" unicode="&#x10a;" horiz-adv-x="821" 
d="M427 49c119 0 224 79 252 186l81 -15c-35 -141 -174 -245 -333 -245c-212 0 -366 158 -366 377s154 378 366 378c159 0 299 -109 333 -257l-82 -10c-26 110 -131 193 -251 193c-165 0 -283 -127 -283 -304c1 -176 119 -303 283 -303zM411 780c-31 0 -52 20 -52 49
c1 29 22 48 52 48c31 0 52 -19 52 -48s-21 -49 -52 -49z" />
    <glyph glyph-name="cdotaccent" unicode="&#x10b;" horiz-adv-x="610" 
d="M314 525c122 0 225 -78 244 -185l-74 -10c-19 74 -90 128 -170 128c-106 0 -187 -87 -187 -206s80 -205 187 -205c82 0 150 53 170 125l75 -10c-23 -106 -126 -182 -245 -182c-153 0 -263 114 -263 272s111 273 263 273zM314 595c-30 0 -52 21 -52 52c0 29 22 51 52 51
c31 0 52 -22 52 -51c0 -31 -21 -52 -52 -52z" />
    <glyph glyph-name="Ccaron" unicode="&#x10c;" horiz-adv-x="821" 
d="M427 49c119 0 224 79 252 186l81 -15c-35 -141 -174 -245 -333 -245c-212 0 -366 158 -366 377s154 378 366 378c159 0 299 -109 333 -257l-82 -10c-26 110 -131 193 -251 193c-165 0 -283 -127 -283 -304c1 -176 119 -303 283 -303zM499 940h74l-121 -164h-82l-120 164
h72l89 -120z" />
    <glyph glyph-name="ccaron" unicode="&#x10d;" horiz-adv-x="610" 
d="M314 525c122 0 225 -78 244 -185l-74 -10c-19 74 -90 128 -170 128c-106 0 -187 -87 -187 -206s80 -205 187 -205c82 0 150 53 170 125l75 -10c-23 -106 -126 -182 -245 -182c-153 0 -263 114 -263 272s111 273 263 273zM402 729l73 1l-121 -165h-81l-120 164h72l89 -120
z" />
    <glyph glyph-name="Dcaron" unicode="&#x10e;" horiz-adv-x="781" 
d="M638 352c0 171 -132 279 -328 279h-132v-557h132c196 0 328 108 328 278zM310 0h-215v705h215c246 0 410 -141 410 -353c0 -211 -164 -352 -410 -352zM358 817l88 120h74l-121 -164h-82l-120 164h72z" />
    <glyph glyph-name="dcaron" unicode="&#x10f;" horiz-adv-x="763" 
d="M320 451c-112 0 -193 -84 -193 -199c0 -116 82 -198 193 -198c112 0 193 84 193 198c0 115 -81 199 -193 199zM51 252c0 158 110 273 261 273c85 0 156 -40 199 -105v315h76v-735h-74v87c-43 -66 -115 -107 -201 -107c-151 0 -261 115 -261 272zM693 633
c-26 0 -43 18 -43 45c0 26 18 45 44 45c31 0 52 -25 52 -60c0 -50 -26 -102 -63 -130l-27 22c21 20 37 52 37 78z" />
    <glyph glyph-name="Dcroat" unicode="&#x110;" horiz-adv-x="828" 
d="M141 439v266h215c246 0 410 -141 410 -353c0 -211 -164 -352 -410 -352h-215v369h-112v70h112zM684 352c0 171 -132 279 -328 279h-132v-192h205v-70h-205v-295h132c196 0 328 108 328 278z" />
    <glyph glyph-name="dcroat" unicode="&#x111;" horiz-adv-x="715" 
d="M320 451c-112 0 -193 -84 -193 -199c0 -116 82 -198 193 -198c112 0 193 84 193 198c0 115 -81 199 -193 199zM511 420v182h-211v57h211v76h76v-76h95v-57h-95v-602h-74v87c-43 -66 -115 -107 -201 -107c-151 0 -261 115 -261 272c0 158 110 273 261 273
c85 0 156 -40 199 -105z" />
    <glyph glyph-name="Emacron" unicode="&#x112;" horiz-adv-x="645" 
d="M176 330v-256h410v-74h-491v705h481v-74h-400v-231h360v-70h-360zM496 858v-53h-314v53h314z" />
    <glyph glyph-name="emacron" unicode="&#x113;" horiz-adv-x="635" 
d="M131 294l373 -1c-14 96 -88 162 -188 162c-98 0 -171 -66 -185 -161zM51 258c0 154 112 267 268 267c154 0 265 -113 265 -268c0 -9 0 -19 -1 -30l-454 1c12 -106 88 -179 188 -179c78 0 152 48 175 114l75 -12c-31 -99 -135 -171 -247 -171c-156 0 -269 117 -269 278z
M164 648h314v-53h-314v53z" />
    <glyph glyph-name="Ebreve" unicode="&#x114;" horiz-adv-x="645" 
d="M536 330h-360v-256h410v-74h-491v705h481v-74h-400v-231h360v-70zM411 917h59c0 -83 -45 -142 -131 -142c-87 0 -132 60 -132 142h60c0 -50 30 -86 72 -86s72 36 72 86z" />
    <glyph glyph-name="ebreve" unicode="&#x115;" horiz-adv-x="635" 
d="M131 294l373 -1c-14 96 -88 162 -188 162c-98 0 -171 -66 -185 -161zM51 258c0 154 112 267 268 267c154 0 265 -113 265 -268c0 -9 0 -19 -1 -30l-454 1c12 -106 88 -179 188 -179c78 0 152 48 175 114l75 -12c-31 -99 -135 -171 -247 -171c-156 0 -269 117 -269 278z
M392 725h60c0 -83 -41 -160 -131 -160c-92 0 -132 76 -132 160h61c0 -61 29 -104 71 -104c41 0 71 43 71 104z" />
    <glyph glyph-name="Edotaccent" unicode="&#x116;" horiz-adv-x="645" 
d="M176 330v-256h410v-74h-491v705h481v-74h-400v-231h360v-70h-360zM339 780c-32 0 -52 20 -52 49s21 48 52 48s52 -19 52 -48s-21 -49 -52 -49z" />
    <glyph glyph-name="edotaccent" unicode="&#x117;" horiz-adv-x="635" 
d="M131 294l373 -1c-14 96 -88 162 -188 162c-98 0 -171 -66 -185 -161zM51 258c0 154 112 267 268 267c154 0 265 -113 265 -268c0 -9 0 -19 -1 -30l-454 1c12 -106 88 -179 188 -179c78 0 152 48 175 114l75 -12c-31 -99 -135 -171 -247 -171c-156 0 -269 117 -269 278z
M321 595c-31 0 -52 21 -52 52c0 29 21 51 52 51c30 0 52 -22 52 -51c0 -31 -22 -52 -52 -52z" />
    <glyph glyph-name="Eogonek" unicode="&#x118;" horiz-adv-x="645" 
d="M451 0h-356v705h481v-74h-400v-231h360v-70h-360v-256h410v-74h-58c-81 -22 -109 -60 -109 -101c0 -73 69 -119 167 -122v-56c-127 0 -218 69 -218 167c0 49 31 89 83 112z" />
    <glyph glyph-name="eogonek" unicode="&#x119;" horiz-adv-x="635" 
d="M131 294l373 -1c-14 96 -88 162 -188 162c-98 0 -171 -66 -185 -161zM308 -20c-150 6 -257 121 -257 278c0 154 112 267 268 267c154 0 265 -113 265 -268c0 -9 0 -19 -1 -30l-454 1c12 -106 88 -179 188 -179c78 0 152 48 175 114l75 -12c-27 -82 -100 -142 -182 -163
c-55 -22 -75 -55 -75 -90c0 -73 69 -119 167 -122v-56c-128 0 -218 70 -218 167c0 38 18 70 49 93z" />
    <glyph glyph-name="Ecaron" unicode="&#x11a;" horiz-adv-x="645" 
d="M176 330v-256h410v-74h-491v705h481v-74h-400v-231h360v-70h-360zM427 939l73 1l-121 -165h-82l-120 164h73l89 -120z" />
    <glyph glyph-name="ecaron" unicode="&#x11b;" horiz-adv-x="635" 
d="M131 294l373 -1c-14 96 -88 162 -188 162c-98 0 -171 -66 -185 -161zM51 258c0 154 112 267 268 267c154 0 265 -113 265 -268c0 -9 0 -19 -1 -30l-454 1c12 -106 88 -179 188 -179c78 0 152 48 175 114l75 -12c-31 -99 -135 -171 -247 -171c-156 0 -269 117 -269 278z
M321 609l88 120l73 1l-121 -165h-81l-120 164h72z" />
    <glyph glyph-name="Gcircumflex" unicode="&#x11c;" horiz-adv-x="868" 
d="M440 49c160 0 283 117 283 271h-285v69h368c17 -240 -137 -414 -366 -414c-220 0 -379 159 -379 377c0 219 159 378 379 378c162 0 303 -105 335 -250l-79 -15c-29 111 -137 191 -256 191c-172 0 -296 -126 -296 -304c0 -175 124 -303 296 -303zM351 775h-76l123 145h83
l124 -145h-76l-89 101z" />
    <glyph glyph-name="gcircumflex" unicode="&#x11d;" horiz-adv-x="666" 
d="M320 55c112 0 193 83 193 197c0 118 -81 203 -193 203s-193 -85 -193 -203c0 -114 82 -197 193 -197zM325 -181c108 0 186 70 186 189v80c-44 -64 -114 -102 -199 -102c-151 0 -261 112 -261 266c0 157 110 271 261 271c87 0 156 -39 199 -102v84h76v-497
c0 -162 -109 -258 -259 -258c-131 0 -240 83 -258 198l73 10c17 -81 94 -139 182 -139zM320 685l-89 -120h-72l119 165h82l121 -165h-73z" />
    <glyph glyph-name="Gbreve" unicode="&#x11e;" horiz-adv-x="868" 
d="M440 49c160 0 283 117 283 271h-285v69h368c17 -240 -137 -414 -366 -414c-220 0 -379 159 -379 377c0 219 159 378 379 378c162 0 303 -105 335 -250l-79 -15c-29 111 -137 191 -256 191c-172 0 -296 -126 -296 -304c0 -175 124 -303 296 -303zM512 917h59
c0 -83 -44 -142 -131 -142s-132 60 -132 142h60c0 -50 30 -86 72 -86s72 36 72 86z" />
    <glyph glyph-name="gbreve" unicode="&#x11f;" horiz-adv-x="666" 
d="M320 55c112 0 193 83 193 197c0 118 -81 203 -193 203s-193 -85 -193 -203c0 -114 82 -197 193 -197zM325 -181c108 0 186 70 186 189v80c-44 -64 -114 -102 -199 -102c-151 0 -261 112 -261 266c0 157 110 271 261 271c87 0 156 -39 199 -102v84h76v-497
c0 -162 -109 -258 -259 -258c-131 0 -240 83 -258 198l73 10c17 -81 94 -139 182 -139zM390 725h60c0 -83 -41 -160 -131 -160c-92 0 -132 76 -132 160h60c0 -61 30 -104 72 -104c41 0 71 43 71 104z" />
    <glyph glyph-name="Gdotaccent" unicode="&#x120;" horiz-adv-x="868" 
d="M440 49c160 0 283 117 283 271h-285v69h368c17 -240 -137 -414 -366 -414c-220 0 -379 159 -379 377c0 219 159 378 379 378c162 0 303 -105 335 -250l-79 -15c-29 111 -137 191 -256 191c-172 0 -296 -126 -296 -304c0 -175 124 -303 296 -303zM440 780
c-31 0 -52 20 -52 49c1 29 22 48 52 48c31 0 52 -19 52 -48s-21 -49 -52 -49z" />
    <glyph glyph-name="gdotaccent" unicode="&#x121;" horiz-adv-x="666" 
d="M320 55c112 0 193 83 193 197c0 118 -81 203 -193 203s-193 -85 -193 -203c0 -114 82 -197 193 -197zM325 -181c108 0 186 70 186 189v80c-44 -64 -114 -102 -199 -102c-151 0 -261 112 -261 266c0 157 110 271 261 271c87 0 156 -39 199 -102v84h76v-497
c0 -162 -109 -258 -259 -258c-131 0 -240 83 -258 198l73 10c17 -81 94 -139 182 -139zM319 595c-31 0 -52 21 -52 52c0 29 21 51 52 51c30 0 52 -22 52 -51c0 -31 -22 -52 -52 -52z" />
    <glyph glyph-name="Gcommaaccent" unicode="&#x122;" horiz-adv-x="868" 
d="M440 49c160 0 283 117 283 271h-285v69h368c17 -240 -137 -414 -366 -414c-220 0 -379 159 -379 377c0 219 159 378 379 378c162 0 303 -105 335 -250l-79 -15c-29 111 -137 191 -256 191c-172 0 -296 -126 -296 -304c0 -175 124 -303 296 -303zM441 -171
c-25 0 -43 19 -43 45c0 27 18 45 44 45c31 0 52 -24 52 -60c0 -49 -26 -101 -63 -129l-27 21c21 21 37 52 37 78z" />
    <glyph glyph-name="gcommaaccent" unicode="&#x123;" horiz-adv-x="666" 
d="M320 55c112 0 193 83 193 197c0 118 -81 203 -193 203s-193 -85 -193 -203c0 -114 82 -197 193 -197zM325 -181c108 0 186 70 186 189v80c-44 -64 -114 -102 -199 -102c-151 0 -261 112 -261 266c0 157 110 271 261 271c87 0 156 -39 199 -102v84h76v-497
c0 -162 -109 -258 -259 -258c-131 0 -240 83 -258 198l73 10c17 -81 94 -139 182 -139zM327 655c26 0 43 -19 43 -45c0 -27 -17 -45 -44 -45c-30 0 -51 24 -51 60c0 49 26 101 63 129l27 -21c-22 -21 -38 -52 -38 -78z" />
    <glyph glyph-name="Itilde" unicode="&#x128;" horiz-adv-x="285" 
d="M95 0v705h84v-705h-84zM7 810l-42 30c18 39 59 66 108 66c70 0 90 -56 139 -56c29 0 52 19 65 45l42 -29c-17 -40 -59 -68 -111 -68c-74 0 -90 56 -137 56c-26 0 -49 -18 -64 -44z" />
    <glyph glyph-name="itilde" unicode="&#x129;" horiz-adv-x="254" 
d="M77 0v505h77v-505h-77zM-9 592l-41 23c18 39 60 66 107 66c68 0 92 -58 142 -58c27 0 51 16 62 38l43 -23c-18 -39 -60 -67 -111 -67c-74 0 -93 57 -142 57c-26 0 -48 -14 -60 -36z" />
    <glyph glyph-name="Imacron" unicode="&#x12a;" horiz-adv-x="263" 
d="M90 705h83v-705h-83v705zM288 858v-53h-314v53h314z" />
    <glyph glyph-name="imacron" unicode="&#x12b;" horiz-adv-x="227" 
d="M75 505h77v-505h-77v505zM270 648v-53h-314v53h314z" />
    <glyph glyph-name="Iogonek" unicode="&#x12e;" horiz-adv-x="273" 
d="M96 0h-1v705h83v-705h-5c-81 -22 -108 -60 -108 -101c-1 -73 69 -119 167 -122v-56c-128 0 -219 69 -219 167c0 49 31 89 83 112z" />
    <glyph glyph-name="iogonek" unicode="&#x12f;" horiz-adv-x="240" 
d="M87 2v503h76v-505h-3c-83 -22 -111 -60 -111 -102c0 -73 69 -119 167 -122v-56c-128 0 -219 70 -218 167c0 51 33 93 89 115zM124 598c-30 0 -52 22 -52 52s22 51 52 51c31 0 52 -21 52 -51s-21 -52 -52 -52z" />
    <glyph glyph-name="Idotaccent" unicode="&#x130;" horiz-adv-x="273" 
d="M95 705h83v-705h-83v705zM136 780c-31 0 -52 20 -52 49c1 29 22 48 52 48c32 0 52 -19 52 -48s-20 -49 -52 -49z" />
    <glyph glyph-name="dotlessi" unicode="&#x131;" horiz-adv-x="230" 
d="M77 505h76v-505h-76v505z" />
    <glyph glyph-name="IJ" unicode="&#x132;" horiz-adv-x="698" 
d="M95 705h83v-705h-83v705zM522 211v494h84v-493c0 -140 -89 -232 -211 -232c-37 0 -89 8 -128 20v72c38 -11 83 -18 111 -18c84 0 144 59 144 157z" />
    <glyph glyph-name="ij" unicode="&#x133;" horiz-adv-x="461" 
d="M91 505h76v-505h-76v505zM309 -75v580h76v-588c0 -85 -53 -142 -132 -142c-29 0 -62 5 -85 13v67c20 -7 45 -10 65 -10c46 0 76 33 76 80zM129 598c-31 0 -52 22 -52 52s21 51 52 51c30 0 52 -21 52 -51s-22 -52 -52 -52zM347 598c-31 0 -52 22 -52 52s21 51 52 51
c30 0 52 -21 52 -51s-22 -52 -52 -52z" />
    <glyph glyph-name="Kcommaaccent" unicode="&#x136;" horiz-adv-x="618" 
d="M95 0v705h83v-301l299 301h109l-334 -333l344 -372h-109l-309 341v-341h-83zM324 -171c-26 0 -43 19 -43 45c0 27 17 46 44 46c30 0 51 -25 51 -61c0 -49 -26 -101 -63 -129l-27 21c22 21 38 53 38 78z" />
    <glyph glyph-name="kcommaaccent" unicode="&#x137;" horiz-adv-x="515" 
d="M155 0h-76v735h76v-434l220 204h103l-253 -235l263 -270h-103l-230 239v-239zM271 -162c-26 0 -43 18 -43 45c0 26 18 45 44 45c31 0 52 -25 52 -60c0 -50 -26 -102 -63 -130l-27 22c21 20 37 52 37 78z" />
    <glyph glyph-name="Lacute" unicode="&#x139;" horiz-adv-x="578" 
d="M539 0h-444v705h83v-631h361v-74zM205 919h90l-113 -144h-87z" />
    <glyph glyph-name="lacute" unicode="&#x13a;" horiz-adv-x="351" 
d="M79 735h76v-735h-76v735zM186 927h90l-114 -145h-87z" />
    <glyph glyph-name="Lcommaaccent" unicode="&#x13b;" horiz-adv-x="578" 
d="M539 0h-444v705h83v-631h361v-74zM318 -171c-26 0 -43 19 -43 45c0 27 17 46 44 46c30 0 51 -25 51 -61c0 -49 -26 -101 -63 -129l-27 21c22 21 38 53 38 78z" />
    <glyph glyph-name="lcommaaccent" unicode="&#x13c;" horiz-adv-x="243" 
d="M79 735h76v-735h-76v735zM117 -169c-26 -1 -43 18 -43 45c0 26 17 45 44 45c30 0 51 -25 51 -60c0 -50 -26 -102 -63 -130l-27 22c22 20 38 52 38 78z" />
    <glyph glyph-name="Lcaron" unicode="&#x13d;" horiz-adv-x="578" 
d="M539 74v-74h-444v705h83v-631h361zM323 640c-26 0 -43 19 -43 45c0 27 17 45 44 45c31 0 52 -24 52 -60c0 -49 -27 -101 -64 -129l-27 21c22 21 38 52 38 78z" />
    <glyph glyph-name="lcaron" unicode="&#x13e;" horiz-adv-x="340" 
d="M79 0v735h76v-735h-76zM270 632c-25 0 -42 19 -42 45c0 27 17 46 44 46c30 0 51 -25 51 -61c0 -49 -26 -101 -63 -129l-27 21c22 21 37 53 37 78z" />
    <glyph glyph-name="Lslash" unicode="&#x141;" horiz-adv-x="512" 
d="M29 258l110 71v376h83v-321l342 222v-74l-342 -223v-235h361v-74h-444v255l-110 -71v74z" />
    <glyph glyph-name="lslash" unicode="&#x142;" horiz-adv-x="433" 
d="M409 474l-155 -100v-374h-76v325l-154 -99v74l154 99v336h76v-287l155 100v-74z" />
    <glyph glyph-name="Nacute" unicode="&#x143;" horiz-adv-x="747" 
d="M204 705l365 -603v603h84v-705h-109l-366 603v-603h-83v705h109zM434 919h91l-114 -144h-87z" />
    <glyph glyph-name="nacute" unicode="&#x144;" 
d="M79 505h76v-71c35 56 103 91 173 91c129 0 208 -94 208 -223v-302h-76v302c0 89 -51 153 -140 153c-88 0 -165 -67 -165 -160v-295h-76v505zM394 729h87l-131 -164h-80z" />
    <glyph glyph-name="Ncommaaccent" unicode="&#x145;" horiz-adv-x="747" 
d="M204 705l365 -603v603h84v-705h-109l-366 603v-603h-83v705h109zM370 -172c-25 0 -42 18 -42 45s17 45 44 45c30 0 51 -25 51 -60c0 -50 -26 -102 -63 -130l-27 22c22 20 37 52 37 78z" />
    <glyph glyph-name="ncommaaccent" unicode="&#x146;" 
d="M79 505h76v-71c35 56 103 91 173 91c129 0 208 -94 208 -223v-302h-76v302c0 89 -51 153 -140 153c-88 0 -165 -67 -165 -160v-295h-76v505zM307 -172c-26 0 -43 18 -43 45c0 26 18 45 44 45c31 0 52 -25 52 -60c0 -50 -26 -102 -63 -130l-27 22c21 20 37 52 37 78z" />
    <glyph glyph-name="Ncaron" unicode="&#x147;" horiz-adv-x="747" 
d="M204 705l365 -603v603h84v-705h-109l-366 603v-603h-83v705h109zM463 939l74 1l-121 -165h-82l-120 164h72l89 -120z" />
    <glyph glyph-name="ncaron" unicode="&#x148;" 
d="M79 505h76v-71c35 56 103 91 173 91c129 0 208 -94 208 -223v-302h-76v302c0 89 -51 153 -140 153c-88 0 -165 -67 -165 -160v-295h-76v505zM407 729l73 1l-121 -165h-82l-120 164h73l89 -120z" />
    <glyph glyph-name="Omacron" unicode="&#x14c;" horiz-adv-x="880" 
d="M440 -25c-222 0 -379 156 -379 377s157 378 379 378s380 -157 380 -378s-158 -377 -380 -377zM440 656c-172 0 -296 -127 -296 -304c0 -176 124 -302 296 -303c173 0 296 127 296 303c0 177 -123 304 -296 304zM597 858v-53h-314v53h314z" />
    <glyph glyph-name="omacron" unicode="&#x14d;" horiz-adv-x="640" 
d="M320 525c157 0 270 -113 270 -273c0 -159 -113 -272 -270 -272c-158 0 -269 113 -269 272c0 160 111 273 269 273zM320 49c112 0 193 86 193 203c0 118 -81 203 -193 203s-193 -85 -193 -203c0 -117 81 -203 193 -203zM477 648v-53h-314v53h314z" />
    <glyph glyph-name="Obreve" unicode="&#x14e;" horiz-adv-x="880" 
d="M440 656c-172 0 -296 -127 -296 -304c0 -176 124 -302 296 -303c173 0 296 127 296 303c0 177 -123 304 -296 304zM440 -25c-222 0 -379 156 -379 377s157 378 379 378s380 -157 380 -378s-158 -377 -380 -377zM512 917h59c0 -83 -44 -142 -131 -142
c-86 0 -131 60 -131 142h59c0 -50 30 -86 72 -86s72 36 72 86z" />
    <glyph glyph-name="obreve" unicode="&#x14f;" horiz-adv-x="640" 
d="M320 49c112 0 193 86 193 203c0 118 -81 203 -193 203s-193 -85 -193 -203c0 -117 81 -203 193 -203zM320 525c157 0 270 -113 270 -273c0 -159 -113 -272 -270 -272c-158 0 -269 113 -269 272c0 160 111 273 269 273zM391 725h61c0 -83 -41 -160 -132 -160
s-132 76 -132 160h61c0 -61 30 -104 71 -104c42 0 71 43 71 104z" />
    <glyph glyph-name="Ohungarumlaut" unicode="&#x150;" horiz-adv-x="880" 
d="M440 -25c-222 0 -379 156 -379 377s157 378 379 378s380 -157 380 -378s-158 -377 -380 -377zM440 656c-172 0 -296 -127 -296 -304c0 -176 124 -302 296 -303c173 0 296 127 296 303c0 177 -123 304 -296 304zM422 919h80l-117 -144h-68zM583 919h80l-122 -144h-68z" />
    <glyph glyph-name="ohungarumlaut" unicode="&#x151;" horiz-adv-x="639" 
d="M319 525c158 0 270 -113 270 -273c0 -159 -112 -272 -270 -272s-269 113 -269 272c0 160 111 273 269 273zM319 49c112 0 193 86 193 203c0 118 -81 203 -193 203s-193 -85 -193 -203c0 -117 81 -203 193 -203zM318 745h84l-135 -180h-71zM481 745h81l-138 -180h-72z" />
    <glyph glyph-name="OE" unicode="&#x152;" horiz-adv-x="1069" 
d="M551 75v554c-28 11 -73 18 -116 18c-168 0 -291 -120 -291 -295c0 -173 120 -294 284 -294c46 0 95 7 123 17zM61 352c0 219 155 370 370 370c45 0 87 -6 124 -17h445v-74h-366v-238h326v-70h-326v-249h376v-74h-455c-34 -10 -83 -17 -124 -17c-215 0 -370 151 -370 369z
" />
    <glyph glyph-name="oe" unicode="&#x153;" horiz-adv-x="1098" 
d="M320 49c112 0 193 86 193 203c0 118 -81 203 -193 203s-193 -85 -193 -203c0 -117 81 -203 193 -203zM594 294l373 -1c-14 96 -88 162 -188 162c-98 0 -171 -66 -185 -161zM553 108c-45 -79 -129 -128 -233 -128c-158 0 -269 113 -269 272c0 160 111 273 269 273
c102 0 185 -48 231 -125c46 77 129 125 231 125c154 0 265 -112 265 -268c0 -9 0 -19 -1 -30l-453 1c11 -106 87 -179 187 -179c79 0 153 48 175 114l75 -12c-31 -99 -134 -171 -246 -171c-102 0 -185 49 -231 128z" />
    <glyph glyph-name="Racute" unicode="&#x154;" horiz-adv-x="730" 
d="M400 631h-222v-291h222c104 0 178 59 178 143c0 92 -74 148 -178 148zM178 266v-266h-83v705h311c149 0 255 -92 255 -222c0 -98 -72 -183 -174 -205l180 -278h-97l-167 266h-225zM319 775l111 144h90l-114 -144h-87z" />
    <glyph glyph-name="racute" unicode="&#x155;" horiz-adv-x="417" 
d="M79 505h74v-70c30 55 78 88 140 88c21 0 45 -5 68 -14v-70c-26 12 -55 16 -75 16c-79 0 -131 -71 -131 -172v-283h-76v505zM297 729h87l-130 -164h-80z" />
    <glyph glyph-name="Rcommaaccent" unicode="&#x156;" horiz-adv-x="730" 
d="M400 631h-222v-291h222c104 0 178 59 178 143c0 92 -74 148 -178 148zM178 266v-266h-83v705h311c149 0 255 -92 255 -222c0 -98 -72 -183 -174 -205l180 -278h-97l-167 266h-225zM368 -172c-25 0 -43 19 -43 45c0 27 18 45 44 45c31 0 52 -24 52 -60
c0 -49 -26 -101 -63 -129l-27 21c21 20 37 52 37 78z" />
    <glyph glyph-name="rcommaaccent" unicode="&#x157;" horiz-adv-x="389" 
d="M79 505h74v-70c30 55 78 88 140 88c21 0 45 -5 68 -14v-70c-26 12 -55 16 -75 16c-79 0 -131 -71 -131 -172v-283h-76v505zM117 -170c-26 0 -43 18 -43 45s17 45 44 45c30 0 51 -24 51 -60c0 -50 -26 -101 -63 -129l-27 21c22 20 38 52 38 78z" />
    <glyph glyph-name="Rcaron" unicode="&#x158;" horiz-adv-x="730" 
d="M400 631h-222v-291h222c104 0 178 59 178 143c0 92 -74 148 -178 148zM178 266v-266h-83v705h311c149 0 255 -92 255 -222c0 -98 -72 -183 -174 -205l180 -278h-97l-167 266h-225zM371 819l88 120l73 1l-121 -165h-82l-120 164h73z" />
    <glyph glyph-name="rcaron" unicode="&#x159;" horiz-adv-x="394" 
d="M79 505h74v-70c30 55 78 88 140 88c21 0 45 -5 68 -14v-70c-26 12 -55 16 -75 16c-79 0 -131 -71 -131 -172v-283h-76v505zM308 729l73 1l-121 -165h-82l-119 164h72l89 -120z" />
    <glyph glyph-name="Sacute" unicode="&#x15a;" horiz-adv-x="702" 
d="M635 205c0 -134 -106 -230 -272 -230c-173 0 -297 106 -298 253h83c0 -104 89 -179 216 -179c116 0 187 61 187 146c0 94 -100 108 -209 122c-131 18 -266 39 -266 196c0 125 107 217 266 217c161 0 278 -100 279 -239h-81c0 96 -83 165 -198 165
c-110 0 -182 -57 -182 -136c0 -94 94 -109 205 -124c129 -18 270 -39 270 -191zM408 919h91l-114 -144h-87z" />
    <glyph glyph-name="sacute" unicode="&#x15b;" horiz-adv-x="544" 
d="M490 145c0 -95 -88 -165 -208 -165c-130 0 -224 80 -224 189h75c0 -70 62 -120 148 -120c78 0 135 38 135 89c-1 63 -89 77 -144 85c-115 18 -204 34 -203 148c0 89 84 154 193 154c125 0 216 -72 217 -171l-75 1c-1 58 -61 100 -143 100c-65 0 -118 -36 -118 -86
c0 -45 42 -60 134 -75c93 -16 212 -37 213 -149zM339 729h87l-131 -164h-80z" />
    <glyph glyph-name="Scircumflex" unicode="&#x15c;" horiz-adv-x="702" 
d="M635 205c0 -134 -106 -230 -272 -230c-173 0 -297 106 -298 253h83c0 -104 89 -179 216 -179c116 0 187 61 187 146c0 94 -100 108 -209 122c-131 18 -266 39 -266 196c0 125 107 217 266 217c161 0 278 -100 279 -239h-81c0 96 -83 165 -198 165
c-110 0 -182 -57 -182 -136c0 -94 94 -109 205 -124c129 -18 270 -39 270 -191zM261 775h-77l123 145h83l124 -145h-76l-89 101z" />
    <glyph glyph-name="scircumflex" unicode="&#x15d;" horiz-adv-x="544" 
d="M490 145c0 -95 -88 -165 -208 -165c-130 0 -224 80 -224 189h75c0 -70 62 -120 148 -120c78 0 135 38 135 89c-1 63 -89 77 -144 85c-115 18 -204 34 -203 148c0 89 84 154 193 154c125 0 216 -72 217 -171l-75 1c-1 58 -61 100 -143 100c-65 0 -118 -36 -118 -86
c0 -45 42 -60 134 -75c93 -16 212 -37 213 -149zM173 565h-72l120 165h82l121 -165h-74l-88 120z" />
    <glyph glyph-name="Scedilla" unicode="&#x15e;" horiz-adv-x="702" 
d="M347 -99h-41l10 77c-148 17 -251 117 -251 250h83c0 -104 89 -179 216 -179c116 0 187 61 187 146c0 94 -100 108 -209 122c-131 18 -266 39 -266 196c0 125 107 217 266 217c161 0 278 -100 279 -239h-81c0 96 -83 165 -198 165c-110 0 -182 -57 -182 -136
c0 -94 94 -109 205 -124c129 -18 270 -39 270 -191c0 -133 -105 -229 -270 -230l-6 -41c69 0 114 -42 114 -105c0 -59 -45 -99 -111 -99c-55 0 -99 34 -108 82l42 11c10 -30 36 -51 64 -51c37 0 61 24 61 60c0 42 -29 69 -74 69z" />
    <glyph glyph-name="scedilla" unicode="&#x15f;" horiz-adv-x="544" 
d="M283 -99h-41l10 80c-114 11 -194 87 -194 188h75c0 -70 62 -120 148 -120c78 0 135 38 135 89c-1 63 -89 77 -144 85c-115 18 -204 34 -203 148c0 89 84 154 193 154c125 0 216 -72 217 -171l-75 1c-1 58 -61 100 -143 100c-65 0 -118 -36 -118 -86c0 -45 42 -60 134 -75
c93 -16 212 -37 213 -149c0 -90 -78 -157 -189 -164l-6 -47c68 0 113 -42 113 -105c0 -59 -44 -99 -110 -99c-55 0 -100 34 -109 82l43 11c9 -30 35 -51 64 -51c36 0 61 24 61 60c0 42 -29 69 -74 69z" />
    <glyph glyph-name="Scaron" unicode="&#x160;" horiz-adv-x="702" 
d="M635 205c0 -134 -106 -230 -272 -230c-173 0 -297 106 -298 253h83c0 -104 89 -179 216 -179c116 0 187 61 187 146c0 94 -100 108 -209 122c-131 18 -266 39 -266 196c0 125 107 217 266 217c161 0 278 -100 279 -239h-81c0 96 -83 165 -198 165
c-110 0 -182 -57 -182 -136c0 -94 94 -109 205 -124c129 -18 270 -39 270 -191zM437 939l74 1l-121 -165h-82l-120 164h72l89 -120z" />
    <glyph glyph-name="scaron" unicode="&#x161;" horiz-adv-x="544" 
d="M490 145c0 -95 -88 -165 -208 -165c-130 0 -224 80 -224 189h75c0 -70 62 -120 148 -120c78 0 135 38 135 89c-1 63 -89 77 -144 85c-115 18 -204 34 -203 148c0 89 84 154 193 154c125 0 216 -72 217 -171l-75 1c-1 58 -61 100 -143 100c-65 0 -118 -36 -118 -86
c0 -45 42 -60 134 -75c93 -16 212 -37 213 -149zM349 729l74 1l-121 -165h-82l-120 164h72l89 -120z" />
    <glyph glyph-name="Tcommaaccent" unicode="&#x162;" horiz-adv-x="597" 
d="M340 0h-83v631h-236v74h555v-74h-236v-631zM294 -172c-26 0 -43 18 -43 45s18 45 44 45c31 0 52 -24 52 -60c0 -50 -26 -102 -63 -129l-27 21c21 20 37 52 37 78z" />
    <glyph glyph-name="tcommaaccent" unicode="&#x163;" horiz-adv-x="388" 
d="M122 125v317h-83v63h86l11 118h62v-118h131v-63h-131v-314c0 -49 30 -82 78 -83c16 0 42 4 61 10v-63c-23 -7 -55 -12 -80 -12c-83 0 -135 58 -135 145zM234 -172c-26 0 -43 18 -43 45c0 26 18 45 44 45c31 0 52 -25 52 -60c0 -50 -26 -102 -63 -130l-27 22
c21 20 37 52 37 78z" />
    <glyph glyph-name="Tcaron" unicode="&#x164;" horiz-adv-x="597" 
d="M257 0v631h-236v74h555v-74h-236v-631h-83zM386 933h74l-121 -165h-82l-120 165h72l89 -120z" />
    <glyph glyph-name="tcaron" unicode="&#x165;" horiz-adv-x="381" 
d="M122 125v317h-83v63h86l11 118h62v-118h131v-63h-131v-314c0 -49 30 -82 78 -83c16 0 42 4 61 10v-63c-23 -7 -55 -12 -80 -12c-83 0 -135 58 -135 145zM289 642c-26 -1 -43 18 -43 44c0 27 17 46 44 46c31 0 52 -25 52 -60c0 -50 -27 -102 -64 -130l-27 22
c22 20 38 52 38 78z" />
    <glyph glyph-name="Utilde" unicode="&#x168;" horiz-adv-x="749" 
d="M577 286v419h83v-419c0 -182 -118 -311 -285 -311c-168 0 -286 129 -286 311v419h83v-419c0 -129 80 -237 203 -237c121 0 202 98 202 237zM245 810l-42 30c18 39 59 66 108 66c70 0 90 -56 139 -56c29 0 52 19 65 45l42 -29c-17 -40 -59 -68 -111 -68
c-74 0 -91 56 -137 56c-26 0 -49 -18 -64 -44z" />
    <glyph glyph-name="utilde" unicode="&#x169;" 
d="M526 505v-505h-76v71c-34 -56 -103 -91 -173 -91c-129 0 -208 94 -208 223v302h76v-302c0 -89 51 -154 141 -154c88 0 164 68 164 160v296h76zM173 592l-41 22c18 39 60 67 107 67c68 0 92 -59 142 -59c27 0 51 16 62 38l43 -22c-18 -40 -60 -68 -111 -68
c-74 0 -93 58 -142 58c-26 0 -48 -15 -60 -36z" />
    <glyph glyph-name="Umacron" unicode="&#x16a;" horiz-adv-x="749" 
d="M577 286v419h83v-419c0 -182 -118 -311 -285 -311c-168 0 -286 129 -286 311v419h83v-419c0 -129 80 -237 203 -237c121 0 202 98 202 237zM532 858v-53h-314v53h314z" />
    <glyph glyph-name="umacron" unicode="&#x16b;" 
d="M526 0h-76v71c-34 -56 -103 -91 -173 -91c-129 0 -208 94 -208 223v302h76v-302c0 -89 51 -154 141 -154c88 0 164 68 164 160v296h76v-505zM454 648v-54h-314v54h314z" />
    <glyph glyph-name="Ubreve" unicode="&#x16c;" horiz-adv-x="749" 
d="M577 286v419h83v-419c0 -182 -118 -311 -285 -311c-168 0 -286 129 -286 311v419h83v-419c0 -129 80 -237 203 -237c121 0 202 98 202 237zM447 917h59c0 -83 -45 -142 -131 -142c-87 0 -132 60 -132 142h60c0 -50 30 -86 72 -86s72 36 72 86z" />
    <glyph glyph-name="ubreve" unicode="&#x16d;" 
d="M526 0h-76v71c-34 -56 -103 -91 -173 -91c-129 0 -208 94 -208 223v302h76v-302c0 -89 51 -154 141 -154c88 0 164 68 164 160v296h76v-505zM368 724h61c0 -83 -41 -160 -132 -160s-132 77 -132 160h61c0 -60 30 -103 71 -103c42 0 71 43 71 103z" />
    <glyph glyph-name="Uring" unicode="&#x16e;" horiz-adv-x="749" 
d="M375 948c-41 0 -70 -28 -69 -68c0 -40 28 -69 69 -69c39 0 68 29 68 69s-29 68 -68 68zM577 286v419h83v-419c0 -182 -118 -311 -285 -311c-168 0 -286 129 -286 311v419h83v-419c0 -129 80 -237 203 -237c121 0 202 98 202 237zM375 765c-70 0 -120 48 -120 115
s50 115 120 115s119 -48 119 -115s-49 -115 -119 -115z" />
    <glyph glyph-name="uring" unicode="&#x16f;" 
d="M297 737c-40 0 -69 -28 -68 -68c0 -40 28 -69 68 -69s69 29 69 69s-29 68 -69 68zM526 505v-505h-76v71c-34 -56 -103 -91 -173 -91c-129 0 -208 94 -208 223v302h76v-302c0 -89 51 -154 141 -154c88 0 164 68 164 160v296h76zM297 554c-70 0 -120 48 -120 115
c0 68 50 115 120 115s119 -47 119 -115c0 -67 -49 -115 -119 -115z" />
    <glyph glyph-name="Uhungarumlaut" unicode="&#x170;" horiz-adv-x="749" 
d="M577 286v419h83v-419c0 -182 -118 -311 -285 -311c-168 0 -286 129 -286 311v419h83v-419c0 -129 80 -237 203 -237c121 0 202 98 202 237zM357 919h80l-117 -144h-69zM518 919h79l-121 -144h-68z" />
    <glyph glyph-name="uhungarumlaut" unicode="&#x171;" horiz-adv-x="582" 
d="M526 0h-76v71c-34 -56 -103 -91 -173 -91c-129 0 -208 94 -208 223v302h76v-302c0 -89 51 -154 141 -154c88 0 164 68 164 160v296h76v-505zM289 744h84l-135 -180h-72zM451 744h82l-139 -180h-71z" />
    <glyph glyph-name="Uogonek" unicode="&#x172;" horiz-adv-x="749" 
d="M367 -25c-163 4 -278 132 -278 311v419h83v-419c0 -129 80 -237 203 -237c121 0 202 98 202 237v419h83v-419c0 -159 -91 -278 -225 -305c-44 -22 -60 -52 -60 -83c0 -73 70 -119 168 -122v-56c-128 0 -219 70 -219 167c0 35 16 65 43 88z" />
    <glyph glyph-name="uogonek" unicode="&#x173;" horiz-adv-x="661" 
d="M450 4v67c-34 -56 -103 -91 -173 -91c-129 0 -208 94 -208 223v302h76v-302c0 -89 51 -154 141 -154c88 0 164 68 164 160v296h76v-505h-9c-76 -22 -103 -59 -103 -100c0 -72 70 -118 168 -121v-56c-128 0 -219 69 -219 167c0 50 32 91 87 114z" />
    <glyph glyph-name="Wcircumflex" unicode="&#x174;" horiz-adv-x="1076" 
d="M601 705l160 -649l182 649h86l-200 -705h-134l-157 618l-156 -618h-135l-201 705h87l182 -649l164 649h122zM449 775h-77l124 145h82l124 -145h-76l-89 101z" />
    <glyph glyph-name="wcircumflex" unicode="&#x175;" horiz-adv-x="879" 
d="M318 0h-104l-171 505h80l144 -430l127 430h89l131 -430l142 430h80l-172 -505h-104l-121 416zM351 565h-72l120 165h82l121 -165h-74l-88 120z" />
    <glyph glyph-name="Ycircumflex" unicode="&#x176;" horiz-adv-x="647" 
d="M282 0v262l-253 443h92l203 -363l200 363h94l-252 -443v-262h-84zM235 775h-77l124 145h82l124 -145h-76l-89 101z" />
    <glyph glyph-name="ycircumflex" unicode="&#x177;" horiz-adv-x="569" 
d="M64 -208v67c23 -8 48 -14 67 -14c74 0 96 80 129 156l-227 504h84l180 -410l158 410h81l-201 -512c-46 -115 -87 -216 -193 -216c-25 0 -55 6 -78 15zM286 685l-89 -120h-72l119 165h82l121 -165h-73z" />
    <glyph glyph-name="Ydieresis" unicode="&#x178;" horiz-adv-x="647" 
d="M282 0v262l-253 443h92l203 -363l200 363h94l-252 -443v-262h-84zM214 785c-30 0 -52 21 -52 51s22 51 52 51s52 -21 52 -51s-22 -51 -52 -51zM433 785c-31 0 -52 21 -52 51s21 51 52 51c30 0 52 -21 52 -51s-22 -51 -52 -51z" />
    <glyph glyph-name="Zacute" unicode="&#x179;" horiz-adv-x="649" 
d="M46 55l433 580h-423v70h536v-55l-432 -581h442v-69h-556v55zM383 919h91l-114 -144h-87z" />
    <glyph glyph-name="zacute" unicode="&#x17a;" horiz-adv-x="556" 
d="M51 50l329 385h-319v70h434v-50l-330 -386h340v-69h-454v50zM356 729h86l-130 -164h-80z" />
    <glyph glyph-name="Zdotaccent" unicode="&#x17b;" horiz-adv-x="649" 
d="M46 55l433 580h-423v70h536v-55l-432 -581h442v-69h-556v55zM324 780c-31 0 -52 20 -52 49c1 29 22 48 52 48c32 0 52 -19 52 -48s-20 -49 -52 -49z" />
    <glyph glyph-name="zdotaccent" unicode="&#x17c;" horiz-adv-x="556" 
d="M51 50l329 385h-319v70h434v-50l-330 -386h340v-69h-454v50zM278 595c-30 0 -52 21 -52 52c0 29 22 51 52 51c31 0 52 -22 52 -51c0 -31 -21 -52 -52 -52z" />
    <glyph glyph-name="Zcaron" unicode="&#x17d;" horiz-adv-x="649" 
d="M46 55l433 580h-423v70h536v-55l-432 -581h442v-69h-556v55zM412 939l74 1l-121 -165h-82l-120 164h72l89 -120z" />
    <glyph glyph-name="zcaron" unicode="&#x17e;" horiz-adv-x="556" 
d="M51 50l329 385h-319v70h434v-50l-330 -386h340v-69h-454v50zM366 729l74 1l-122 -165h-81l-120 164h72l89 -120z" />
    <glyph glyph-name="Aacutering" unicode="&#x1fa;" horiz-adv-x="704" 
d="M353 631l-161 -422h321zM351 849c-24 0 -42 -17 -42 -41c0 -25 18 -43 42 -43c25 0 43 18 43 43c0 24 -18 41 -43 41zM172 144l-54 -144h-89l263 705h120l263 -705h-89l-53 144h-361zM351 718c-54 0 -93 38 -94 89c1 52 39 89 93 89c55 0 94 -38 94 -89
c0 -52 -39 -89 -93 -89zM309 906l80 102h90l-84 -102h-86z" />
    <glyph glyph-name="aacutering" unicode="&#x1fb;" horiz-adv-x="669" 
d="M320 49c111 0 193 86 193 203c0 118 -82 203 -193 203c-112 0 -193 -85 -193 -203c0 -117 81 -203 193 -203zM327 696c-25 0 -43 -17 -43 -42s18 -43 43 -43s43 18 42 43c0 25 -17 42 -42 42zM514 415v90h76v-505h-76v89c-43 -67 -116 -109 -203 -109
c-151 0 -260 115 -260 272c0 158 109 273 260 273c87 0 160 -42 203 -110zM327 565c-54 0 -94 37 -94 89s39 89 93 89s93 -38 94 -89c0 -52 -39 -89 -93 -89zM307 775l110 144h90l-114 -144h-86z" />
    <glyph glyph-name="AEacute" unicode="&#x1fc;" horiz-adv-x="939" 
d="M231 214h223v430zM530 74h350v-74h-426v143h-257l-75 -143h-93l365 705h477v-75h-340v-237h300v-70h-301v-249zM495 765l110 144h91l-114 -144h-87z" />
    <glyph glyph-name="aeacute" unicode="&#x1fd;" horiz-adv-x="1083" 
d="M320 460c-113 0 -193 -87 -193 -208c0 -120 81 -207 193 -207c109 0 193 83 193 207c0 121 -81 208 -193 208zM581 279h374c-4 102 -82 176 -190 176c-102 0 -175 -74 -184 -176zM509 420v85h61v-92c36 69 104 112 197 112c154 0 265 -112 265 -266c0 -13 -1 -30 -2 -45
h-446c16 -99 89 -165 189 -165c78 0 148 47 166 111l72 -10c-18 -99 -117 -170 -234 -170c-92 0 -172 46 -207 116v-96h-61v84c-45 -64 -116 -104 -202 -104c-149 0 -256 115 -256 272c0 158 107 273 256 273c86 0 158 -41 202 -105zM491 570l124 165l87 -1l-131 -164h-80z
" />
    <glyph glyph-name="Oslashacute" unicode="&#x1fe;" horiz-adv-x="860" 
d="M430 656c-166 0 -286 -128 -286 -304c0 -112 50 -204 129 -256l271 537c-35 15 -73 23 -114 23zM430 49c166 0 286 127 286 303c0 105 -43 192 -112 245l-268 -533c29 -10 61 -15 94 -15zM301 -4l-67 -136h-79l83 165c-109 63 -177 182 -177 327c0 219 155 378 369 378
c53 0 103 -10 147 -29l80 159l79 1l-96 -192c98 -66 160 -180 160 -317c0 -218 -155 -377 -370 -377c-46 0 -89 8 -129 21zM400 765l110 144h91l-114 -144h-87z" />
    <glyph glyph-name="oslashacute" unicode="&#x1ff;" horiz-adv-x="645" 
d="M323 465c-119 0 -203 -89 -203 -213c0 -77 34 -141 88 -178l189 377c-23 9 -48 14 -74 14zM323 40c117 0 201 89 201 212c0 70 -27 128 -71 166l-186 -371c17 -5 36 -7 56 -7zM239 -9l-35 -71h-73l48 96c-79 46 -128 131 -128 236c0 160 113 273 272 273
c37 0 71 -6 103 -18l46 93h73l-62 -123c69 -47 111 -128 111 -225c0 -159 -113 -272 -271 -272c-30 0 -58 4 -84 11zM402 729h86l-130 -164h-80z" />
    <glyph glyph-name="Scommaaccent" unicode="&#x218;" horiz-adv-x="702" 
d="M635 205c0 -134 -106 -230 -272 -230c-173 0 -297 106 -298 253h83c0 -104 89 -179 216 -179c116 0 187 61 187 146c0 94 -100 108 -209 122c-131 18 -266 39 -266 196c0 125 107 217 266 217c161 0 278 -100 279 -239h-81c0 96 -83 165 -198 165
c-110 0 -182 -57 -182 -136c0 -94 94 -109 205 -124c129 -18 270 -39 270 -191zM346 -172c-26 -1 -43 18 -43 45c0 26 18 45 44 45c31 0 52 -25 52 -60c0 -50 -26 -102 -63 -130l-27 22c21 20 37 52 37 78z" />
    <glyph glyph-name="scommaaccent" unicode="&#x219;" horiz-adv-x="544" 
d="M490 145c0 -95 -88 -165 -208 -165c-130 0 -224 80 -224 189h75c0 -70 62 -120 148 -120c78 0 135 38 135 89c-1 63 -89 77 -144 85c-115 18 -204 34 -203 148c0 89 84 154 193 154c125 0 216 -72 217 -171l-75 1c-1 58 -61 100 -143 100c-65 0 -118 -36 -118 -86
c0 -45 42 -60 134 -75c93 -16 212 -37 213 -149zM260 -172c-25 0 -43 18 -43 45c0 26 18 45 44 45c31 0 52 -25 52 -60c0 -50 -26 -102 -63 -130l-27 22c21 20 37 52 37 78z" />
    <glyph glyph-name="circumflex" unicode="&#x2c6;" horiz-adv-x="424" 
d="M51 570l120 165h81l122 -165h-74l-88 121l-89 -121h-72z" />
    <glyph glyph-name="caron" unicode="&#x2c7;" horiz-adv-x="424" 
d="M300 735h74l-122 -165h-81l-120 165h72l89 -121z" />
    <glyph glyph-name="breve" unicode="&#x2d8;" horiz-adv-x="365" 
d="M254 735h60c0 -84 -41 -161 -131 -161c-92 0 -132 77 -132 161h60c0 -61 30 -104 72 -104c41 0 71 43 71 104z" />
    <glyph glyph-name="dotaccent" unicode="&#x2d9;" horiz-adv-x="206" 
d="M103 560c-31 0 -52 22 -52 52s21 51 52 51c30 0 52 -21 52 -51s-22 -52 -52 -52z" />
    <glyph glyph-name="ring" unicode="&#x2da;" horiz-adv-x="340" 
d="M171 540c-71 0 -120 48 -120 115c0 68 49 115 120 115c70 0 118 -47 118 -115c0 -67 -48 -115 -118 -115zM171 723c-41 0 -70 -28 -69 -68c0 -40 28 -68 69 -68c39 0 68 28 68 68s-29 68 -68 68z" />
    <glyph glyph-name="ogonek" unicode="&#x2db;" horiz-adv-x="320" 
d="M174 12l40 -12c-83 -22 -112 -60 -112 -102c0 -73 69 -119 167 -122v-56c-128 0 -218 70 -218 167c0 61 47 108 123 125z" />
    <glyph glyph-name="tilde" unicode="&#x2dc;" horiz-adv-x="455" 
d="M92 596l-41 22c18 39 60 66 107 66c68 0 92 -58 142 -58c27 0 51 16 62 38l43 -22c-18 -40 -60 -68 -111 -68c-74 0 -93 58 -142 58c-25 0 -48 -15 -60 -36z" />
    <glyph glyph-name="hungarumlaut" unicode="&#x2dd;" horiz-adv-x="468" 
d="M173 750h84l-135 -180h-71zM335 750h82l-138 -180h-72z" />
    <glyph glyph-name="Wgrave" unicode="&#x1e80;" horiz-adv-x="1076" 
d="M601 705l160 -649l182 649h86l-200 -705h-134l-157 618l-156 -618h-135l-201 705h87l182 -649l164 649h122zM378 919h91l110 -144h-87z" />
    <glyph glyph-name="wgrave" unicode="&#x1e81;" horiz-adv-x="879" 
d="M318 0h-104l-171 505h80l144 -430l127 430h89l131 -430l142 430h80l-172 -505h-104l-121 416zM272 729l87 1l123 -165h-79z" />
    <glyph glyph-name="Wacute" unicode="&#x1e82;" horiz-adv-x="1076" 
d="M601 705l160 -649l182 649h86l-200 -705h-134l-157 618l-156 -618h-135l-201 705h87l182 -649l164 649h122zM597 919h90l-114 -144h-87z" />
    <glyph glyph-name="wacute" unicode="&#x1e83;" horiz-adv-x="879" 
d="M318 0h-104l-171 505h80l144 -430l127 430h89l131 -430l142 430h80l-172 -505h-104l-121 416zM517 729h87l-131 -164h-80z" />
    <glyph glyph-name="Wdieresis" unicode="&#x1e84;" horiz-adv-x="1076" 
d="M601 705l160 -649l182 649h86l-200 -705h-134l-157 618l-156 -618h-135l-201 705h87l182 -649l164 649h122zM471 785c-30 0 -52 21 -52 51s22 51 52 51s52 -21 52 -51s-22 -51 -52 -51zM604 785c-30 0 -52 21 -52 51s22 51 52 51c31 0 52 -21 52 -51s-21 -51 -52 -51z
" />
    <glyph glyph-name="wdieresis" unicode="&#x1e85;" horiz-adv-x="879" 
d="M318 0h-104l-171 505h80l144 -430l127 430h89l131 -430l142 430h80l-172 -505h-104l-121 416zM320 582c-31 0 -52 21 -52 51s21 51 52 51c30 0 52 -21 52 -51s-22 -51 -52 -51zM559 582c-31 0 -52 21 -52 51s21 51 52 51c30 0 52 -21 52 -51s-22 -51 -52 -51z" />
    <glyph glyph-name="Germandbls" unicode="&#x1e9e;" horiz-adv-x="684" 
d="M168 472v-472h-83v480c0 140 100 242 242 242c130 0 226 -82 226 -191c0 -82 -48 -144 -117 -154c104 -13 178 -94 177 -201c0 -117 -91 -201 -212 -201c-60 0 -114 20 -162 46l25 70c40 -25 86 -43 132 -43c80 0 134 56 134 135c0 93 -59 157 -177 157h-42v70h43
c67 0 115 47 115 115c0 71 -60 123 -144 123c-93 0 -157 -69 -157 -176z" />
    <glyph glyph-name="Ygrave" unicode="&#x1ef2;" horiz-adv-x="647" 
d="M282 0v262l-253 443h92l203 -363l200 363h94l-252 -443v-262h-84zM166 919h91l110 -144h-87z" />
    <glyph glyph-name="ygrave" unicode="&#x1ef3;" horiz-adv-x="560" 
d="M60 -208v67c23 -8 47 -14 67 -14c73 0 96 80 128 156l-227 504h85l180 -410l157 410h82l-202 -512c-45 -115 -86 -216 -192 -216c-26 0 -55 6 -78 15zM115 729l87 1l124 -165h-80z" />
    <glyph glyph-name="endash" unicode="&#x2013;" horiz-adv-x="667" 
d="M619 347v-70h-570v70h570z" />
    <glyph glyph-name="emdash" unicode="&#x2014;" horiz-adv-x="827" 
d="M29 347h770v-70h-770v70z" />
    <glyph glyph-name="quoteleft" unicode="&#x2018;" horiz-adv-x="211" 
d="M109 613c30 0 50 -20 50 -51c0 -29 -22 -50 -51 -50c-34 0 -57 28 -57 70c0 62 30 126 72 153l37 -27c-30 -20 -51 -60 -51 -95z" />
    <glyph glyph-name="quoteright" unicode="&#x2019;" horiz-adv-x="211" 
d="M102 621c-29 0 -50 21 -50 52c0 29 22 50 51 50c35 0 57 -28 57 -70c0 -62 -30 -126 -72 -153l-37 27c30 20 51 60 51 94z" />
    <glyph glyph-name="quotesinglbase" unicode="&#x201a;" horiz-adv-x="211" 
d="M102 -12c-29 0 -50 20 -50 51c0 30 22 50 51 50c35 0 57 -28 57 -70c0 -62 -30 -125 -72 -153l-37 27c30 21 51 60 51 95z" />
    <glyph glyph-name="quotedblleft" unicode="&#x201c;" horiz-adv-x="374" 
d="M161 562c0 -29 -21 -50 -51 -50c-34 0 -57 28 -57 70c0 62 30 126 72 153l38 -27c-30 -20 -51 -60 -51 -95c29 0 49 -20 49 -51zM320 562c0 -29 -22 -50 -52 -50c-34 0 -57 28 -57 70c0 62 30 126 73 153l37 -27c-30 -20 -51 -60 -51 -95c29 0 50 -20 50 -51z" />
    <glyph glyph-name="quotedblright" unicode="&#x201d;" horiz-adv-x="371" 
d="M54 674c0 30 22 51 52 51c34 0 57 -28 57 -70c0 -63 -30 -126 -73 -153l-37 27c30 20 51 59 51 94c-29 0 -50 21 -50 51zM212 674c0 30 22 51 52 51c34 0 57 -28 57 -70c0 -63 -30 -126 -73 -153l-37 27c30 20 51 59 51 94c-29 0 -50 21 -50 51z" />
    <glyph glyph-name="quotedblbase" unicode="&#x201e;" horiz-adv-x="371" 
d="M54 40c0 29 21 50 51 50c34 0 57 -28 57 -70c0 -62 -30 -126 -72 -153l-38 27c30 20 52 60 52 94c-30 0 -50 21 -50 52zM212 40c0 29 22 50 51 50c34 0 57 -28 57 -70c0 -62 -30 -126 -72 -153l-37 27c30 20 51 60 51 94c-30 0 -50 21 -50 52z" />
    <glyph glyph-name="bullet" unicode="&#x2022;" horiz-adv-x="224" 
d="M112 250c-36 0 -61 25 -61 60s25 60 61 60s62 -25 62 -60s-26 -60 -62 -60z" />
    <glyph glyph-name="ellipsis" unicode="&#x2026;" horiz-adv-x="538" 
d="M103 -12c-31 0 -52 21 -52 52c0 29 21 51 52 51c30 0 52 -22 52 -51c0 -31 -22 -52 -52 -52zM269 -12c-31 0 -52 21 -52 52c0 29 21 51 52 51c30 0 52 -22 52 -51c0 -31 -22 -52 -52 -52zM435 -12c-31 0 -52 21 -52 52c0 29 21 51 52 51c30 0 52 -22 52 -51
c0 -31 -22 -52 -52 -52z" />
    <glyph glyph-name="perthousand" unicode="&#x2030;" horiz-adv-x="1482" 
d="M563 192c0 119 83 201 201 201c119 0 202 -82 202 -201c0 -120 -83 -202 -202 -202s-201 82 -201 202zM888 192c0 73 -51 123 -124 123s-124 -50 -124 -123s51 -123 124 -123s124 50 124 123zM1027 191c0 120 83 202 202 202s202 -82 202 -202c0 -119 -83 -201 -202 -201
s-202 82 -202 201zM1352 192c0 72 -50 123 -123 123c-74 0 -124 -51 -124 -123c0 -74 50 -123 124 -123c73 0 123 49 123 123zM51 543c0 119 83 202 202 202s202 -83 202 -202s-83 -201 -202 -201c-120 0 -202 82 -202 201zM376 543c0 73 -50 123 -123 123
c-74 0 -125 -50 -125 -123s51 -123 125 -123c73 0 123 50 123 123zM711 735h93l-498 -735h-93z" />
    <glyph glyph-name="guilsinglleft" unicode="&#x2039;" horiz-adv-x="376" 
d="M326 505l-204 -253l204 -252h-92l-201 252l201 253h92z" />
    <glyph glyph-name="guilsinglright" unicode="&#x203a;" horiz-adv-x="376" 
d="M344 252l-201 -252h-92l203 252l-203 253h91z" />
    <glyph glyph-name="lira" unicode="&#x20a4;" 
d="M353 662c-71 0 -114 -59 -113 -141v-122h251v-54h-251c-1 -22 -1 -42 -3 -61h254v-54h-262c-15 -106 -55 -149 -101 -170h424v-60h-501v85c45 7 87 37 101 147h-93l-1 52h101c2 19 2 40 2 61h-103l1 54h102v122c0 121 72 208 189 208s193 -88 204 -210l-74 -12
c-8 90 -52 155 -127 155z" />
    <glyph glyph-name="Euro" unicode="&#x20ac;" horiz-adv-x="912" 
d="M518 49c119 0 224 79 252 186l80 -15c-34 -141 -173 -245 -332 -245c-181 0 -319 115 -357 284h-110v57h102c-1 12 -1 24 -1 36c0 15 0 29 2 43h-103v56h112c39 166 176 279 355 279c159 0 299 -109 333 -257l-82 -10c-26 110 -131 193 -251 193
c-132 0 -234 -82 -269 -205h305v-56h-317c-1 -14 -2 -28 -2 -43c0 -12 1 -24 2 -36h317v-57h-307c35 -126 138 -210 271 -210z" />
    <glyph glyph-name="trademark" unicode="&#x2122;" horiz-adv-x="1102" 
d="M169 150v495h-150v60h369v-60h-152v-495h-67zM953 609l-185 -459h-53l-185 459v-459h-64v555h96l179 -459l178 459h98v-555h-64v459z" />
    <glyph glyph-name="minus" unicode="&#x2212;" horiz-adv-x="512" 
d="M51 347h410v-70h-410v70z" />
    <glyph glyph-name="approxequal" unicode="&#x2248;" horiz-adv-x="360" 
 />
    <glyph glyph-name="notequal" unicode="&#x2260;" horiz-adv-x="572" 
d="M51 223h171l67 179h-238v70h264l62 164h70l-62 -164h136v-70h-162l-67 -179h229v-70h-255l-72 -193h-71l73 193h-145v70z" />
    <glyph glyph-name="lessequal" unicode="&#x2264;" horiz-adv-x="449" 
d="M396 69v-69h-352l1 69h351zM44 358l352 162v-72l-283 -129l283 -130v-70l-352 162v77z" />
    <glyph glyph-name="greaterequal" unicode="&#x2265;" horiz-adv-x="449" 
d="M53 69h352v-69h-352v69zM53 189l283 130l-283 129v72l352 -162v-77l-352 -162v70z" />
    <glyph glyph-name="commaaccent" unicode="&#xf6c3;" horiz-adv-x="197" 
d="M94 -24c-26 0 -43 18 -43 45s17 45 44 45c30 0 51 -25 51 -60c0 -50 -26 -102 -63 -130l-27 22c22 20 38 52 38 78z" />
    <glyph glyph-name="acute.case" horiz-adv-x="302" 
d="M252 735l-114 -145h-87l110 145h91z" />
    <glyph glyph-name="breve.case" horiz-adv-x="364" 
d="M254 735h60c0 -83 -45 -143 -131 -143c-87 0 -132 60 -132 143h60c0 -51 29 -87 72 -87c42 0 71 36 71 87z" />
    <glyph glyph-name="caron.case" horiz-adv-x="431" 
d="M305 735h76l-124 -145h-83l-123 145h77l88 -102z" />
    <glyph glyph-name="circumflex.case" horiz-adv-x="431" 
d="M51 590l123 145h83l124 -145h-76l-89 102l-88 -102h-77z" />
    <glyph glyph-name="dieresis.case" horiz-adv-x="424" 
d="M103 559c-31 0 -52 20 -52 51c0 29 21 50 52 50c30 0 52 -21 52 -50c0 -31 -22 -51 -52 -51zM322 559c-31 0 -52 20 -52 51c0 29 21 50 52 50c30 0 52 -21 52 -50c0 -31 -22 -51 -52 -51z" />
    <glyph glyph-name="dotaccent.case" horiz-adv-x="206" 
d="M103 566c-31 0 -52 19 -52 49c1 29 21 48 52 48s52 -19 52 -48c0 -30 -21 -49 -52 -49z" />
    <glyph glyph-name="grave.case" horiz-adv-x="302" 
d="M51 737h90l111 -145h-87z" />
    <glyph glyph-name="hungarumlaut.case" horiz-adv-x="448" 
d="M156 735h80l-117 -145h-68zM317 735h80l-122 -145h-68z" />
    <glyph glyph-name="ijacute" horiz-adv-x="480" 
d="M85 505h77v-505h-77v505zM326 -77v582h77v-584c0 -84 -54 -141 -133 -141c-29 0 -62 5 -85 13v59c22 -6 44 -9 66 -9c45 0 75 32 75 80zM200 735l87 -1l-130 -164h-80zM438 735l86 -1l-130 -164h-80z" />
    <glyph glyph-name="ring.case" horiz-adv-x="288" 
d="M145 540c-55 0 -94 38 -94 89c0 52 39 89 93 89s93 -37 93 -89s-39 -89 -92 -89zM145 671c-25 0 -43 -17 -43 -41c0 -25 18 -43 43 -43c24 0 42 18 42 43c0 24 -17 41 -42 41z" />
    <glyph glyph-name="tilde.case" horiz-adv-x="455" 
d="M92 605l-41 30c17 39 59 67 107 67c70 0 90 -57 140 -57c28 0 52 19 65 46l42 -30c-18 -40 -60 -68 -112 -68c-74 0 -90 57 -136 57c-27 0 -49 -19 -65 -45z" />
    </font>
</defs>
</svg>
